<mxfile host="app.diagrams.net" modified="2021-07-21T15:24:54.335Z" agent="5.0 (Windows NT 10.0; Win64; x64) AppleWebKit/537.36 (KHTML, like Gecko) Chrome/91.0.4472.124 Safari/537.36" etag="LRIDVSUH2lR0NnLXuMaY" version="14.9.0" type="github" pages="6">
  <diagram id="NPSHvd_kSki1qHI0-w2j" name="Manage Folders">
    <mxGraphModel dx="1038" dy="1716" grid="1" gridSize="10" guides="1" tooltips="1" connect="1" arrows="1" fold="1" page="1" pageScale="1" pageWidth="827" pageHeight="1169" math="0" shadow="0">
      <root>
        <mxCell id="0" />
        <mxCell id="1" parent="0" />
        <mxCell id="77YlU8coJIrOSI4Zl3ui-39" style="edgeStyle=orthogonalEdgeStyle;rounded=0;comic=0;sketch=0;orthogonalLoop=1;jettySize=auto;html=1;shadow=0;startArrow=none;startFill=0;endArrow=none;endFill=0;" parent="1" source="77YlU8coJIrOSI4Zl3ui-5" edge="1">
          <mxGeometry relative="1" as="geometry">
            <mxPoint x="30" y="300" as="targetPoint" />
          </mxGeometry>
        </mxCell>
        <mxCell id="77YlU8coJIrOSI4Zl3ui-5" value="Admin" style="shape=umlActor;html=1;verticalLabelPosition=bottom;verticalAlign=top;align=center;" parent="1" vertex="1">
          <mxGeometry x="70" y="450" width="30" height="60" as="geometry" />
        </mxCell>
        <mxCell id="77YlU8coJIrOSI4Zl3ui-24" style="edgeStyle=orthogonalEdgeStyle;rounded=0;orthogonalLoop=1;jettySize=auto;html=1;entryX=0;entryY=1;entryDx=0;entryDy=0;entryPerimeter=0;" parent="1" source="77YlU8coJIrOSI4Zl3ui-6" target="77YlU8coJIrOSI4Zl3ui-22" edge="1">
          <mxGeometry relative="1" as="geometry">
            <mxPoint x="46" y="310" as="targetPoint" />
          </mxGeometry>
        </mxCell>
        <mxCell id="77YlU8coJIrOSI4Zl3ui-6" value="(Regular) User" style="shape=umlActor;html=1;verticalLabelPosition=bottom;verticalAlign=top;align=center;" parent="1" vertex="1">
          <mxGeometry x="70" y="560" width="30" height="60" as="geometry" />
        </mxCell>
        <mxCell id="77YlU8coJIrOSI4Zl3ui-15" value="System" style="swimlane;" parent="1" vertex="1">
          <mxGeometry x="164" y="-10" width="500" height="750" as="geometry">
            <mxRectangle x="350" y="290" width="130" height="23" as="alternateBounds" />
          </mxGeometry>
        </mxCell>
        <mxCell id="77YlU8coJIrOSI4Zl3ui-32" style="edgeStyle=orthogonalEdgeStyle;rounded=0;orthogonalLoop=1;jettySize=auto;html=1;entryX=0.5;entryY=1;entryDx=0;entryDy=0;shadow=0;sketch=0;fillOpacity=100;comic=0;startArrow=none;startFill=0;endArrow=block;endFill=0;" parent="77YlU8coJIrOSI4Zl3ui-15" source="77YlU8coJIrOSI4Zl3ui-18" target="77YlU8coJIrOSI4Zl3ui-31" edge="1">
          <mxGeometry relative="1" as="geometry" />
        </mxCell>
        <mxCell id="77YlU8coJIrOSI4Zl3ui-18" value="Create Folder" style="ellipse;whiteSpace=wrap;html=1;" parent="77YlU8coJIrOSI4Zl3ui-15" vertex="1">
          <mxGeometry x="76" y="129" width="140" height="70" as="geometry" />
        </mxCell>
        <mxCell id="77YlU8coJIrOSI4Zl3ui-27" value="Update Folder" style="ellipse;whiteSpace=wrap;html=1;" parent="77YlU8coJIrOSI4Zl3ui-15" vertex="1">
          <mxGeometry x="76" y="236" width="140" height="70" as="geometry" />
        </mxCell>
        <mxCell id="77YlU8coJIrOSI4Zl3ui-29" value="Delete Folder" style="ellipse;whiteSpace=wrap;html=1;" parent="77YlU8coJIrOSI4Zl3ui-15" vertex="1">
          <mxGeometry x="76" y="343" width="140" height="70" as="geometry" />
        </mxCell>
        <mxCell id="t26bm6EnRgLiurRGZnUi-3" style="edgeStyle=orthogonalEdgeStyle;rounded=0;comic=0;sketch=0;orthogonalLoop=1;jettySize=auto;html=1;shadow=0;startArrow=none;startFill=0;endArrow=none;endFill=0;dashed=1;" parent="77YlU8coJIrOSI4Zl3ui-15" source="77YlU8coJIrOSI4Zl3ui-30" target="t26bm6EnRgLiurRGZnUi-1" edge="1">
          <mxGeometry relative="1" as="geometry">
            <Array as="points">
              <mxPoint x="146" y="590" />
            </Array>
          </mxGeometry>
        </mxCell>
        <mxCell id="t26bm6EnRgLiurRGZnUi-4" style="edgeStyle=orthogonalEdgeStyle;rounded=0;comic=0;sketch=0;orthogonalLoop=1;jettySize=auto;html=1;exitX=0.5;exitY=1;exitDx=0;exitDy=0;entryX=0;entryY=0.5;entryDx=0;entryDy=0;shadow=0;startArrow=classic;startFill=0;endArrow=none;endFill=0;dashed=1;" parent="77YlU8coJIrOSI4Zl3ui-15" source="77YlU8coJIrOSI4Zl3ui-30" target="t26bm6EnRgLiurRGZnUi-2" edge="1">
          <mxGeometry relative="1" as="geometry" />
        </mxCell>
        <mxCell id="77YlU8coJIrOSI4Zl3ui-30" value="View Folder" style="ellipse;whiteSpace=wrap;html=1;" parent="77YlU8coJIrOSI4Zl3ui-15" vertex="1">
          <mxGeometry x="76" y="450" width="140" height="70" as="geometry" />
        </mxCell>
        <mxCell id="77YlU8coJIrOSI4Zl3ui-31" value="Manage Folders&lt;br&gt;{abstract}" style="ellipse;whiteSpace=wrap;html=1;" parent="77YlU8coJIrOSI4Zl3ui-15" vertex="1">
          <mxGeometry x="316.5" y="40" width="140" height="70" as="geometry" />
        </mxCell>
        <mxCell id="t26bm6EnRgLiurRGZnUi-1" value="Filter Folders" style="ellipse;whiteSpace=wrap;html=1;" parent="77YlU8coJIrOSI4Zl3ui-15" vertex="1">
          <mxGeometry x="250" y="525" width="140" height="70" as="geometry" />
        </mxCell>
        <mxCell id="t26bm6EnRgLiurRGZnUi-2" value="Export CSV" style="ellipse;whiteSpace=wrap;html=1;" parent="77YlU8coJIrOSI4Zl3ui-15" vertex="1">
          <mxGeometry x="250" y="640" width="140" height="70" as="geometry" />
        </mxCell>
        <mxCell id="t26bm6EnRgLiurRGZnUi-5" value="&amp;lt;&amp;lt;extend&amp;gt;&amp;gt;" style="text;html=1;align=center;verticalAlign=middle;resizable=0;points=[];autosize=1;strokeColor=none;" parent="77YlU8coJIrOSI4Zl3ui-15" vertex="1">
          <mxGeometry x="156" y="570" width="80" height="20" as="geometry" />
        </mxCell>
        <mxCell id="t26bm6EnRgLiurRGZnUi-6" value="&amp;lt;&amp;lt;extend&amp;gt;&amp;gt;" style="text;html=1;align=center;verticalAlign=middle;resizable=0;points=[];autosize=1;strokeColor=none;" parent="77YlU8coJIrOSI4Zl3ui-15" vertex="1">
          <mxGeometry x="156" y="650" width="80" height="20" as="geometry" />
        </mxCell>
        <mxCell id="77YlU8coJIrOSI4Zl3ui-38" style="edgeStyle=orthogonalEdgeStyle;rounded=0;comic=0;sketch=0;orthogonalLoop=1;jettySize=auto;html=1;exitX=1;exitY=0.5;exitDx=0;exitDy=0;shadow=0;startArrow=none;startFill=0;endArrow=block;endFill=0;entryX=0.5;entryY=1;entryDx=0;entryDy=0;" parent="77YlU8coJIrOSI4Zl3ui-15" source="77YlU8coJIrOSI4Zl3ui-29" target="77YlU8coJIrOSI4Zl3ui-31" edge="1">
          <mxGeometry relative="1" as="geometry">
            <mxPoint x="386" y="130" as="targetPoint" />
          </mxGeometry>
        </mxCell>
        <mxCell id="77YlU8coJIrOSI4Zl3ui-40" style="edgeStyle=orthogonalEdgeStyle;rounded=0;comic=0;sketch=0;orthogonalLoop=1;jettySize=auto;html=1;entryX=-0.002;entryY=0.419;entryDx=0;entryDy=0;entryPerimeter=0;shadow=0;startArrow=none;startFill=0;endArrow=none;endFill=0;" parent="1" source="77YlU8coJIrOSI4Zl3ui-22" target="77YlU8coJIrOSI4Zl3ui-18" edge="1">
          <mxGeometry relative="1" as="geometry" />
        </mxCell>
        <mxCell id="77YlU8coJIrOSI4Zl3ui-41" style="edgeStyle=orthogonalEdgeStyle;rounded=0;comic=0;sketch=0;orthogonalLoop=1;jettySize=auto;html=1;entryX=0;entryY=0.5;entryDx=0;entryDy=0;shadow=0;startArrow=none;startFill=0;endArrow=none;endFill=0;" parent="1" source="77YlU8coJIrOSI4Zl3ui-22" target="77YlU8coJIrOSI4Zl3ui-27" edge="1">
          <mxGeometry relative="1" as="geometry" />
        </mxCell>
        <mxCell id="77YlU8coJIrOSI4Zl3ui-43" style="edgeStyle=orthogonalEdgeStyle;rounded=0;comic=0;sketch=0;orthogonalLoop=1;jettySize=auto;html=1;entryX=0;entryY=0.5;entryDx=0;entryDy=0;shadow=0;startArrow=none;startFill=0;endArrow=none;endFill=0;" parent="1" source="77YlU8coJIrOSI4Zl3ui-22" target="77YlU8coJIrOSI4Zl3ui-30" edge="1">
          <mxGeometry relative="1" as="geometry" />
        </mxCell>
        <mxCell id="77YlU8coJIrOSI4Zl3ui-44" style="edgeStyle=orthogonalEdgeStyle;rounded=0;comic=0;sketch=0;orthogonalLoop=1;jettySize=auto;html=1;entryX=0;entryY=0.5;entryDx=0;entryDy=0;shadow=0;startArrow=none;startFill=0;endArrow=none;endFill=0;" parent="1" source="77YlU8coJIrOSI4Zl3ui-22" target="77YlU8coJIrOSI4Zl3ui-29" edge="1">
          <mxGeometry relative="1" as="geometry" />
        </mxCell>
        <mxCell id="77YlU8coJIrOSI4Zl3ui-22" value="User" style="shape=umlActor;html=1;verticalLabelPosition=bottom;verticalAlign=top;align=center;" parent="1" vertex="1">
          <mxGeometry x="30" y="230" width="30" height="60" as="geometry" />
        </mxCell>
        <mxCell id="dCWFjDtnaPjeCgS3fv1p-1" style="edgeStyle=orthogonalEdgeStyle;rounded=0;comic=0;sketch=0;orthogonalLoop=1;jettySize=auto;html=1;shadow=0;startArrow=none;startFill=0;endArrow=classic;endFill=0;" parent="1" source="77YlU8coJIrOSI4Zl3ui-30" edge="1">
          <mxGeometry relative="1" as="geometry">
            <mxPoint x="550" y="100" as="targetPoint" />
          </mxGeometry>
        </mxCell>
        <mxCell id="77YlU8coJIrOSI4Zl3ui-35" style="edgeStyle=orthogonalEdgeStyle;rounded=0;comic=0;sketch=0;orthogonalLoop=1;jettySize=auto;html=1;shadow=0;startArrow=none;startFill=0;endArrow=block;endFill=0;" parent="1" source="77YlU8coJIrOSI4Zl3ui-27" edge="1">
          <mxGeometry relative="1" as="geometry">
            <mxPoint x="550" y="120" as="targetPoint" />
          </mxGeometry>
        </mxCell>
      </root>
    </mxGraphModel>
  </diagram>
  <diagram id="ld3_T3tP64brBlElxeT-" name="Manage Files">
    <mxGraphModel dx="1038" dy="1658" grid="1" gridSize="10" guides="1" tooltips="1" connect="1" arrows="1" fold="1" page="1" pageScale="1" pageWidth="827" pageHeight="1169" math="0" shadow="0">
      <root>
        <mxCell id="WJ2HjTwYeUb7oTE4C3ra-0" />
        <mxCell id="WJ2HjTwYeUb7oTE4C3ra-1" parent="WJ2HjTwYeUb7oTE4C3ra-0" />
        <mxCell id="m2s0oMakl54NOrw17iV2-0" style="edgeStyle=orthogonalEdgeStyle;rounded=0;comic=0;sketch=0;orthogonalLoop=1;jettySize=auto;html=1;shadow=0;startArrow=none;startFill=0;endArrow=none;endFill=0;" parent="WJ2HjTwYeUb7oTE4C3ra-1" source="m2s0oMakl54NOrw17iV2-1" edge="1">
          <mxGeometry relative="1" as="geometry">
            <mxPoint x="30" y="300.0000000000002" as="targetPoint" />
          </mxGeometry>
        </mxCell>
        <mxCell id="m2s0oMakl54NOrw17iV2-1" value="Admin" style="shape=umlActor;html=1;verticalLabelPosition=bottom;verticalAlign=top;align=center;" parent="WJ2HjTwYeUb7oTE4C3ra-1" vertex="1">
          <mxGeometry x="70" y="450" width="30" height="60" as="geometry" />
        </mxCell>
        <mxCell id="m2s0oMakl54NOrw17iV2-2" style="edgeStyle=orthogonalEdgeStyle;rounded=0;orthogonalLoop=1;jettySize=auto;html=1;entryX=0;entryY=1;entryDx=0;entryDy=0;entryPerimeter=0;" parent="WJ2HjTwYeUb7oTE4C3ra-1" source="m2s0oMakl54NOrw17iV2-3" target="m2s0oMakl54NOrw17iV2-23" edge="1">
          <mxGeometry relative="1" as="geometry">
            <mxPoint x="46" y="310" as="targetPoint" />
          </mxGeometry>
        </mxCell>
        <mxCell id="m2s0oMakl54NOrw17iV2-3" value="(Regular) User" style="shape=umlActor;html=1;verticalLabelPosition=bottom;verticalAlign=top;align=center;" parent="WJ2HjTwYeUb7oTE4C3ra-1" vertex="1">
          <mxGeometry x="70" y="560" width="30" height="60" as="geometry" />
        </mxCell>
        <mxCell id="m2s0oMakl54NOrw17iV2-4" value="System" style="swimlane;" parent="WJ2HjTwYeUb7oTE4C3ra-1" vertex="1">
          <mxGeometry x="164" y="-10" width="500" height="730" as="geometry">
            <mxRectangle x="350" y="290" width="130" height="23" as="alternateBounds" />
          </mxGeometry>
        </mxCell>
        <mxCell id="m2s0oMakl54NOrw17iV2-5" style="edgeStyle=orthogonalEdgeStyle;rounded=0;orthogonalLoop=1;jettySize=auto;html=1;entryX=0.5;entryY=1;entryDx=0;entryDy=0;shadow=0;sketch=0;fillOpacity=100;comic=0;startArrow=none;startFill=0;endArrow=block;endFill=0;" parent="m2s0oMakl54NOrw17iV2-4" source="m2s0oMakl54NOrw17iV2-6" target="m2s0oMakl54NOrw17iV2-13" edge="1">
          <mxGeometry relative="1" as="geometry" />
        </mxCell>
        <mxCell id="m2s0oMakl54NOrw17iV2-6" value="Upload File" style="ellipse;whiteSpace=wrap;html=1;" parent="m2s0oMakl54NOrw17iV2-4" vertex="1">
          <mxGeometry x="76" y="129" width="140" height="70" as="geometry" />
        </mxCell>
        <mxCell id="m2s0oMakl54NOrw17iV2-7" value="Update File" style="ellipse;whiteSpace=wrap;html=1;" parent="m2s0oMakl54NOrw17iV2-4" vertex="1">
          <mxGeometry x="76" y="229" width="140" height="70" as="geometry" />
        </mxCell>
        <mxCell id="m2s0oMakl54NOrw17iV2-9" value="Delete File" style="ellipse;whiteSpace=wrap;html=1;" parent="m2s0oMakl54NOrw17iV2-4" vertex="1">
          <mxGeometry x="76" y="330" width="140" height="70" as="geometry" />
        </mxCell>
        <mxCell id="m2s0oMakl54NOrw17iV2-10" style="edgeStyle=orthogonalEdgeStyle;rounded=0;comic=0;sketch=0;orthogonalLoop=1;jettySize=auto;html=1;shadow=0;startArrow=none;startFill=0;endArrow=none;endFill=0;dashed=1;" parent="m2s0oMakl54NOrw17iV2-4" source="m2s0oMakl54NOrw17iV2-12" target="m2s0oMakl54NOrw17iV2-14" edge="1">
          <mxGeometry relative="1" as="geometry">
            <Array as="points">
              <mxPoint x="146" y="545" />
            </Array>
          </mxGeometry>
        </mxCell>
        <mxCell id="m2s0oMakl54NOrw17iV2-11" style="edgeStyle=orthogonalEdgeStyle;rounded=0;comic=0;sketch=0;orthogonalLoop=1;jettySize=auto;html=1;exitX=0.5;exitY=1;exitDx=0;exitDy=0;entryX=0;entryY=0.5;entryDx=0;entryDy=0;shadow=0;startArrow=classic;startFill=0;endArrow=none;endFill=0;dashed=1;" parent="m2s0oMakl54NOrw17iV2-4" source="m2s0oMakl54NOrw17iV2-12" target="m2s0oMakl54NOrw17iV2-15" edge="1">
          <mxGeometry relative="1" as="geometry" />
        </mxCell>
        <mxCell id="m2s0oMakl54NOrw17iV2-12" value="View File" style="ellipse;whiteSpace=wrap;html=1;" parent="m2s0oMakl54NOrw17iV2-4" vertex="1">
          <mxGeometry x="76" y="430" width="140" height="70" as="geometry" />
        </mxCell>
        <mxCell id="m2s0oMakl54NOrw17iV2-13" value="Manage Files&lt;br&gt;{abstract}" style="ellipse;whiteSpace=wrap;html=1;" parent="m2s0oMakl54NOrw17iV2-4" vertex="1">
          <mxGeometry x="316.5" y="40" width="140" height="70" as="geometry" />
        </mxCell>
        <mxCell id="m2s0oMakl54NOrw17iV2-14" value="Filter Files" style="ellipse;whiteSpace=wrap;html=1;" parent="m2s0oMakl54NOrw17iV2-4" vertex="1">
          <mxGeometry x="250" y="510" width="140" height="70" as="geometry" />
        </mxCell>
        <mxCell id="m2s0oMakl54NOrw17iV2-15" value="Export CSV" style="ellipse;whiteSpace=wrap;html=1;" parent="m2s0oMakl54NOrw17iV2-4" vertex="1">
          <mxGeometry x="250" y="610" width="140" height="70" as="geometry" />
        </mxCell>
        <mxCell id="m2s0oMakl54NOrw17iV2-16" value="&amp;lt;&amp;lt;extend&amp;gt;&amp;gt;" style="text;html=1;align=center;verticalAlign=middle;resizable=0;points=[];autosize=1;strokeColor=none;" parent="m2s0oMakl54NOrw17iV2-4" vertex="1">
          <mxGeometry x="156" y="530" width="80" height="20" as="geometry" />
        </mxCell>
        <mxCell id="m2s0oMakl54NOrw17iV2-17" value="&amp;lt;&amp;lt;extend&amp;gt;&amp;gt;" style="text;html=1;align=center;verticalAlign=middle;resizable=0;points=[];autosize=1;strokeColor=none;" parent="m2s0oMakl54NOrw17iV2-4" vertex="1">
          <mxGeometry x="156" y="630" width="80" height="20" as="geometry" />
        </mxCell>
        <mxCell id="m2s0oMakl54NOrw17iV2-27" style="edgeStyle=orthogonalEdgeStyle;rounded=0;comic=0;sketch=0;orthogonalLoop=1;jettySize=auto;html=1;exitX=1;exitY=0.5;exitDx=0;exitDy=0;shadow=0;startArrow=none;startFill=0;endArrow=block;endFill=0;entryX=0.496;entryY=1;entryDx=0;entryDy=0;entryPerimeter=0;" parent="m2s0oMakl54NOrw17iV2-4" source="m2s0oMakl54NOrw17iV2-9" target="m2s0oMakl54NOrw17iV2-13" edge="1">
          <mxGeometry relative="1" as="geometry">
            <mxPoint x="386" y="130" as="targetPoint" />
          </mxGeometry>
        </mxCell>
        <mxCell id="m2s0oMakl54NOrw17iV2-18" style="edgeStyle=orthogonalEdgeStyle;rounded=0;comic=0;sketch=0;orthogonalLoop=1;jettySize=auto;html=1;entryX=-0.002;entryY=0.419;entryDx=0;entryDy=0;entryPerimeter=0;shadow=0;startArrow=none;startFill=0;endArrow=none;endFill=0;" parent="WJ2HjTwYeUb7oTE4C3ra-1" source="m2s0oMakl54NOrw17iV2-23" target="m2s0oMakl54NOrw17iV2-6" edge="1">
          <mxGeometry relative="1" as="geometry" />
        </mxCell>
        <mxCell id="m2s0oMakl54NOrw17iV2-19" style="edgeStyle=orthogonalEdgeStyle;rounded=0;comic=0;sketch=0;orthogonalLoop=1;jettySize=auto;html=1;entryX=0;entryY=0.5;entryDx=0;entryDy=0;shadow=0;startArrow=none;startFill=0;endArrow=none;endFill=0;" parent="WJ2HjTwYeUb7oTE4C3ra-1" source="m2s0oMakl54NOrw17iV2-23" target="m2s0oMakl54NOrw17iV2-7" edge="1">
          <mxGeometry relative="1" as="geometry" />
        </mxCell>
        <mxCell id="m2s0oMakl54NOrw17iV2-21" style="edgeStyle=orthogonalEdgeStyle;rounded=0;comic=0;sketch=0;orthogonalLoop=1;jettySize=auto;html=1;entryX=0;entryY=0.5;entryDx=0;entryDy=0;shadow=0;startArrow=none;startFill=0;endArrow=none;endFill=0;" parent="WJ2HjTwYeUb7oTE4C3ra-1" source="m2s0oMakl54NOrw17iV2-23" target="m2s0oMakl54NOrw17iV2-12" edge="1">
          <mxGeometry relative="1" as="geometry" />
        </mxCell>
        <mxCell id="m2s0oMakl54NOrw17iV2-22" style="edgeStyle=orthogonalEdgeStyle;rounded=0;comic=0;sketch=0;orthogonalLoop=1;jettySize=auto;html=1;entryX=0;entryY=0.5;entryDx=0;entryDy=0;shadow=0;startArrow=none;startFill=0;endArrow=none;endFill=0;" parent="WJ2HjTwYeUb7oTE4C3ra-1" source="m2s0oMakl54NOrw17iV2-23" target="m2s0oMakl54NOrw17iV2-9" edge="1">
          <mxGeometry relative="1" as="geometry" />
        </mxCell>
        <mxCell id="m2s0oMakl54NOrw17iV2-23" value="User" style="shape=umlActor;html=1;verticalLabelPosition=bottom;verticalAlign=top;align=center;" parent="WJ2HjTwYeUb7oTE4C3ra-1" vertex="1">
          <mxGeometry x="30" y="230" width="30" height="60" as="geometry" />
        </mxCell>
        <mxCell id="m2s0oMakl54NOrw17iV2-24" style="edgeStyle=orthogonalEdgeStyle;rounded=0;comic=0;sketch=0;orthogonalLoop=1;jettySize=auto;html=1;shadow=0;startArrow=none;startFill=0;endArrow=block;endFill=0;" parent="WJ2HjTwYeUb7oTE4C3ra-1" source="m2s0oMakl54NOrw17iV2-7" edge="1">
          <mxGeometry relative="1" as="geometry">
            <mxPoint x="550" y="120" as="targetPoint" />
          </mxGeometry>
        </mxCell>
        <mxCell id="m2s0oMakl54NOrw17iV2-26" style="edgeStyle=orthogonalEdgeStyle;rounded=0;comic=0;sketch=0;orthogonalLoop=1;jettySize=auto;html=1;exitX=1;exitY=0.5;exitDx=0;exitDy=0;shadow=0;startArrow=none;startFill=0;endArrow=block;endFill=0;" parent="WJ2HjTwYeUb7oTE4C3ra-1" source="m2s0oMakl54NOrw17iV2-12" edge="1">
          <mxGeometry relative="1" as="geometry">
            <mxPoint x="550" y="100" as="targetPoint" />
          </mxGeometry>
        </mxCell>
      </root>
    </mxGraphModel>
  </diagram>
  <diagram id="qXAgeGY7O-jh3wLx93ko" name="Manage ACLs">
    <mxGraphModel dx="1038" dy="1716" grid="1" gridSize="10" guides="1" tooltips="1" connect="1" arrows="1" fold="1" page="1" pageScale="1" pageWidth="827" pageHeight="1169" math="0" shadow="0">
      <root>
        <mxCell id="oE-aV4lojgY9i8dUpbFe-0" />
        <mxCell id="oE-aV4lojgY9i8dUpbFe-1" parent="oE-aV4lojgY9i8dUpbFe-0" />
        <mxCell id="vxt_obrcNxcC4Zt3S5Dk-0" style="edgeStyle=orthogonalEdgeStyle;rounded=0;comic=0;sketch=0;orthogonalLoop=1;jettySize=auto;html=1;shadow=0;startArrow=none;startFill=0;endArrow=none;endFill=0;" parent="oE-aV4lojgY9i8dUpbFe-1" source="vxt_obrcNxcC4Zt3S5Dk-1" edge="1">
          <mxGeometry relative="1" as="geometry">
            <mxPoint x="30" y="300.0000000000002" as="targetPoint" />
          </mxGeometry>
        </mxCell>
        <mxCell id="vxt_obrcNxcC4Zt3S5Dk-1" value="Admin" style="shape=umlActor;html=1;verticalLabelPosition=bottom;verticalAlign=top;align=center;" parent="oE-aV4lojgY9i8dUpbFe-1" vertex="1">
          <mxGeometry x="70" y="450" width="30" height="60" as="geometry" />
        </mxCell>
        <mxCell id="vxt_obrcNxcC4Zt3S5Dk-2" style="edgeStyle=orthogonalEdgeStyle;rounded=0;orthogonalLoop=1;jettySize=auto;html=1;entryX=0;entryY=1;entryDx=0;entryDy=0;entryPerimeter=0;" parent="oE-aV4lojgY9i8dUpbFe-1" source="vxt_obrcNxcC4Zt3S5Dk-3" target="vxt_obrcNxcC4Zt3S5Dk-23" edge="1">
          <mxGeometry relative="1" as="geometry">
            <mxPoint x="46" y="310" as="targetPoint" />
          </mxGeometry>
        </mxCell>
        <mxCell id="vxt_obrcNxcC4Zt3S5Dk-3" value="(Regular) User" style="shape=umlActor;html=1;verticalLabelPosition=bottom;verticalAlign=top;align=center;" parent="oE-aV4lojgY9i8dUpbFe-1" vertex="1">
          <mxGeometry x="70" y="560" width="30" height="60" as="geometry" />
        </mxCell>
        <mxCell id="vxt_obrcNxcC4Zt3S5Dk-4" value="System" style="swimlane;" parent="oE-aV4lojgY9i8dUpbFe-1" vertex="1">
          <mxGeometry x="164" y="-10" width="500" height="730" as="geometry">
            <mxRectangle x="350" y="290" width="130" height="23" as="alternateBounds" />
          </mxGeometry>
        </mxCell>
        <mxCell id="vxt_obrcNxcC4Zt3S5Dk-5" style="edgeStyle=orthogonalEdgeStyle;rounded=0;orthogonalLoop=1;jettySize=auto;html=1;entryX=0.5;entryY=1;entryDx=0;entryDy=0;shadow=0;sketch=0;fillOpacity=100;comic=0;startArrow=none;startFill=0;endArrow=block;endFill=0;" parent="vxt_obrcNxcC4Zt3S5Dk-4" source="vxt_obrcNxcC4Zt3S5Dk-6" target="vxt_obrcNxcC4Zt3S5Dk-13" edge="1">
          <mxGeometry relative="1" as="geometry" />
        </mxCell>
        <mxCell id="vxt_obrcNxcC4Zt3S5Dk-6" value="Grant ACL" style="ellipse;whiteSpace=wrap;html=1;" parent="vxt_obrcNxcC4Zt3S5Dk-4" vertex="1">
          <mxGeometry x="76" y="129" width="140" height="70" as="geometry" />
        </mxCell>
        <mxCell id="vxt_obrcNxcC4Zt3S5Dk-7" value="Delete ACL" style="ellipse;whiteSpace=wrap;html=1;" parent="vxt_obrcNxcC4Zt3S5Dk-4" vertex="1">
          <mxGeometry x="76" y="223" width="140" height="70" as="geometry" />
        </mxCell>
        <mxCell id="vxt_obrcNxcC4Zt3S5Dk-10" style="edgeStyle=orthogonalEdgeStyle;rounded=0;comic=0;sketch=0;orthogonalLoop=1;jettySize=auto;html=1;shadow=0;startArrow=none;startFill=0;endArrow=none;endFill=0;dashed=1;" parent="vxt_obrcNxcC4Zt3S5Dk-4" source="vxt_obrcNxcC4Zt3S5Dk-12" target="vxt_obrcNxcC4Zt3S5Dk-14" edge="1">
          <mxGeometry relative="1" as="geometry">
            <Array as="points">
              <mxPoint x="146" y="635" />
            </Array>
          </mxGeometry>
        </mxCell>
        <mxCell id="vxt_obrcNxcC4Zt3S5Dk-11" style="edgeStyle=orthogonalEdgeStyle;rounded=0;comic=0;sketch=0;orthogonalLoop=1;jettySize=auto;html=1;exitX=0.5;exitY=1;exitDx=0;exitDy=0;entryX=0;entryY=0.5;entryDx=0;entryDy=0;shadow=0;startArrow=classic;startFill=0;endArrow=none;endFill=0;dashed=1;" parent="vxt_obrcNxcC4Zt3S5Dk-4" source="vxt_obrcNxcC4Zt3S5Dk-12" target="vxt_obrcNxcC4Zt3S5Dk-15" edge="1">
          <mxGeometry relative="1" as="geometry" />
        </mxCell>
        <mxCell id="vxt_obrcNxcC4Zt3S5Dk-12" value="View ACL" style="ellipse;whiteSpace=wrap;html=1;" parent="vxt_obrcNxcC4Zt3S5Dk-4" vertex="1">
          <mxGeometry x="76" y="330" width="140" height="70" as="geometry" />
        </mxCell>
        <mxCell id="vxt_obrcNxcC4Zt3S5Dk-13" value="Manage ACLs&lt;br&gt;{abstract}" style="ellipse;whiteSpace=wrap;html=1;" parent="vxt_obrcNxcC4Zt3S5Dk-4" vertex="1">
          <mxGeometry x="316.5" y="40" width="140" height="70" as="geometry" />
        </mxCell>
        <mxCell id="vxt_obrcNxcC4Zt3S5Dk-14" value="Filter Folders" style="ellipse;whiteSpace=wrap;html=1;" parent="vxt_obrcNxcC4Zt3S5Dk-4" vertex="1">
          <mxGeometry x="260" y="521" width="140" height="70" as="geometry" />
        </mxCell>
        <mxCell id="vxt_obrcNxcC4Zt3S5Dk-15" value="Export CSV" style="ellipse;whiteSpace=wrap;html=1;" parent="vxt_obrcNxcC4Zt3S5Dk-4" vertex="1">
          <mxGeometry x="260" y="621" width="140" height="70" as="geometry" />
        </mxCell>
        <mxCell id="vxt_obrcNxcC4Zt3S5Dk-16" value="&amp;lt;&amp;lt;extend&amp;gt;&amp;gt;" style="text;html=1;align=center;verticalAlign=middle;resizable=0;points=[];autosize=1;strokeColor=none;" parent="vxt_obrcNxcC4Zt3S5Dk-4" vertex="1">
          <mxGeometry x="166" y="541" width="80" height="20" as="geometry" />
        </mxCell>
        <mxCell id="vxt_obrcNxcC4Zt3S5Dk-17" value="&amp;lt;&amp;lt;extend&amp;gt;&amp;gt;" style="text;html=1;align=center;verticalAlign=middle;resizable=0;points=[];autosize=1;strokeColor=none;" parent="vxt_obrcNxcC4Zt3S5Dk-4" vertex="1">
          <mxGeometry x="166" y="641" width="80" height="20" as="geometry" />
        </mxCell>
        <mxCell id="Te36yvzPbgjvN4vFt5E0-1" style="edgeStyle=orthogonalEdgeStyle;rounded=0;comic=0;sketch=0;orthogonalLoop=1;jettySize=auto;html=1;exitX=0.5;exitY=1;exitDx=0;exitDy=0;entryX=0;entryY=0.5;entryDx=0;entryDy=0;shadow=0;startArrow=classic;startFill=0;endArrow=none;endFill=0;dashed=1;" parent="vxt_obrcNxcC4Zt3S5Dk-4" source="vxt_obrcNxcC4Zt3S5Dk-12" target="Te36yvzPbgjvN4vFt5E0-2" edge="1">
          <mxGeometry relative="1" as="geometry">
            <mxPoint x="146" y="199" as="sourcePoint" />
          </mxGeometry>
        </mxCell>
        <mxCell id="Te36yvzPbgjvN4vFt5E0-2" value="Search in ACL sources" style="ellipse;whiteSpace=wrap;html=1;" parent="vxt_obrcNxcC4Zt3S5Dk-4" vertex="1">
          <mxGeometry x="260" y="420" width="140" height="70" as="geometry" />
        </mxCell>
        <mxCell id="Te36yvzPbgjvN4vFt5E0-3" value="&amp;lt;&amp;lt;extend&amp;gt;&amp;gt;" style="text;html=1;align=center;verticalAlign=middle;resizable=0;points=[];autosize=1;strokeColor=none;" parent="vxt_obrcNxcC4Zt3S5Dk-4" vertex="1">
          <mxGeometry x="166" y="440" width="80" height="20" as="geometry" />
        </mxCell>
        <mxCell id="vxt_obrcNxcC4Zt3S5Dk-18" style="edgeStyle=orthogonalEdgeStyle;rounded=0;comic=0;sketch=0;orthogonalLoop=1;jettySize=auto;html=1;entryX=-0.002;entryY=0.419;entryDx=0;entryDy=0;entryPerimeter=0;shadow=0;startArrow=none;startFill=0;endArrow=none;endFill=0;" parent="oE-aV4lojgY9i8dUpbFe-1" source="vxt_obrcNxcC4Zt3S5Dk-23" target="vxt_obrcNxcC4Zt3S5Dk-6" edge="1">
          <mxGeometry relative="1" as="geometry" />
        </mxCell>
        <mxCell id="vxt_obrcNxcC4Zt3S5Dk-19" style="edgeStyle=orthogonalEdgeStyle;rounded=0;comic=0;sketch=0;orthogonalLoop=1;jettySize=auto;html=1;entryX=0;entryY=0.5;entryDx=0;entryDy=0;shadow=0;startArrow=none;startFill=0;endArrow=none;endFill=0;" parent="oE-aV4lojgY9i8dUpbFe-1" source="vxt_obrcNxcC4Zt3S5Dk-23" target="vxt_obrcNxcC4Zt3S5Dk-7" edge="1">
          <mxGeometry relative="1" as="geometry" />
        </mxCell>
        <mxCell id="vxt_obrcNxcC4Zt3S5Dk-21" style="edgeStyle=orthogonalEdgeStyle;rounded=0;comic=0;sketch=0;orthogonalLoop=1;jettySize=auto;html=1;entryX=0;entryY=0.5;entryDx=0;entryDy=0;shadow=0;startArrow=none;startFill=0;endArrow=none;endFill=0;" parent="oE-aV4lojgY9i8dUpbFe-1" source="vxt_obrcNxcC4Zt3S5Dk-23" target="vxt_obrcNxcC4Zt3S5Dk-12" edge="1">
          <mxGeometry relative="1" as="geometry" />
        </mxCell>
        <mxCell id="vxt_obrcNxcC4Zt3S5Dk-23" value="User" style="shape=umlActor;html=1;verticalLabelPosition=bottom;verticalAlign=top;align=center;" parent="oE-aV4lojgY9i8dUpbFe-1" vertex="1">
          <mxGeometry x="30" y="230" width="30" height="60" as="geometry" />
        </mxCell>
        <mxCell id="vxt_obrcNxcC4Zt3S5Dk-24" style="edgeStyle=orthogonalEdgeStyle;rounded=0;comic=0;sketch=0;orthogonalLoop=1;jettySize=auto;html=1;shadow=0;startArrow=none;startFill=0;endArrow=block;endFill=0;" parent="oE-aV4lojgY9i8dUpbFe-1" source="vxt_obrcNxcC4Zt3S5Dk-7" edge="1">
          <mxGeometry relative="1" as="geometry">
            <mxPoint x="550" y="120" as="targetPoint" />
          </mxGeometry>
        </mxCell>
        <mxCell id="vxt_obrcNxcC4Zt3S5Dk-26" style="edgeStyle=orthogonalEdgeStyle;rounded=0;comic=0;sketch=0;orthogonalLoop=1;jettySize=auto;html=1;exitX=1;exitY=0.5;exitDx=0;exitDy=0;shadow=0;startArrow=none;startFill=0;endArrow=block;endFill=0;" parent="oE-aV4lojgY9i8dUpbFe-1" source="vxt_obrcNxcC4Zt3S5Dk-12" edge="1">
          <mxGeometry relative="1" as="geometry">
            <mxPoint x="550" y="120" as="targetPoint" />
          </mxGeometry>
        </mxCell>
      </root>
    </mxGraphModel>
  </diagram>
  <diagram id="FoVghbE9Lu4z7pNpkKKS" name="Top Level">
    <mxGraphModel dx="2076" dy="2147" grid="1" gridSize="10" guides="1" tooltips="1" connect="1" arrows="1" fold="1" page="1" pageScale="1" pageWidth="827" pageHeight="1169" math="0" shadow="0">
      <root>
        <mxCell id="jCQ3bfTnqBJmba_2qrH4-0" />
        <mxCell id="jCQ3bfTnqBJmba_2qrH4-1" parent="jCQ3bfTnqBJmba_2qrH4-0" />
        <mxCell id="-didQ_hXLUrym4Irgyjn-0" value="" style="group" vertex="1" connectable="0" parent="jCQ3bfTnqBJmba_2qrH4-1">
          <mxGeometry x="90" y="-1060" width="1480" height="2130" as="geometry" />
        </mxCell>
        <mxCell id="pgluA2IQeVN8h7WU6u9w-0" style="edgeStyle=orthogonalEdgeStyle;comic=0;orthogonalLoop=1;jettySize=auto;html=1;shadow=0;startArrow=none;startFill=0;endArrow=none;endFill=0;" parent="-didQ_hXLUrym4Irgyjn-0" edge="1">
          <mxGeometry relative="1" as="geometry">
            <mxPoint y="483.40425531914894" as="targetPoint" />
            <mxPoint x="41.111111111111086" y="755.3200000000002" as="sourcePoint" />
          </mxGeometry>
        </mxCell>
        <mxCell id="pgluA2IQeVN8h7WU6u9w-4" value="System" style="swimlane;fontSize=20;" parent="-didQ_hXLUrym4Irgyjn-0" vertex="1">
          <mxGeometry x="133.6111111111111" width="1346.3888888888887" height="2130" as="geometry">
            <mxRectangle x="350" y="290" width="130" height="23" as="alternateBounds" />
          </mxGeometry>
        </mxCell>
        <mxCell id="pgluA2IQeVN8h7WU6u9w-42" value="" style="group;" parent="pgluA2IQeVN8h7WU6u9w-4" vertex="1" connectable="0">
          <mxGeometry x="82.22222222222221" y="438.0851063829787" width="421.38888888888886" height="609.1489361702128" as="geometry" />
        </mxCell>
        <mxCell id="pgluA2IQeVN8h7WU6u9w-28" value="&lt;font style=&quot;font-size: 20px&quot;&gt;Manage Users&lt;/font&gt;" style="ellipse;whiteSpace=wrap;html=1;" parent="pgluA2IQeVN8h7WU6u9w-42" vertex="1">
          <mxGeometry x="10.277777777777777" y="120.85106382978724" width="143.88888888888889" height="105.74468085106383" as="geometry" />
        </mxCell>
        <mxCell id="pgluA2IQeVN8h7WU6u9w-29" value="&lt;font style=&quot;font-size: 20px&quot;&gt;Create User&lt;/font&gt;" style="ellipse;whiteSpace=wrap;html=1;" parent="pgluA2IQeVN8h7WU6u9w-42" vertex="1">
          <mxGeometry x="287.77777777777777" y="120.85106382978724" width="143.88888888888889" height="105.74468085106383" as="geometry" />
        </mxCell>
        <mxCell id="pgluA2IQeVN8h7WU6u9w-33" style="edgeStyle=orthogonalEdgeStyle;orthogonalLoop=1;jettySize=auto;html=1;exitX=1;exitY=0.5;exitDx=0;exitDy=0;dashed=1;" parent="pgluA2IQeVN8h7WU6u9w-42" source="pgluA2IQeVN8h7WU6u9w-28" target="pgluA2IQeVN8h7WU6u9w-29" edge="1">
          <mxGeometry relative="1" as="geometry" />
        </mxCell>
        <mxCell id="pgluA2IQeVN8h7WU6u9w-30" value="&lt;font style=&quot;font-size: 20px&quot;&gt;Delete User&lt;/font&gt;" style="ellipse;whiteSpace=wrap;html=1;" parent="pgluA2IQeVN8h7WU6u9w-42" vertex="1">
          <mxGeometry x="287.77777777777777" y="267.3829787234043" width="143.88888888888889" height="105.74468085106383" as="geometry" />
        </mxCell>
        <mxCell id="pgluA2IQeVN8h7WU6u9w-34" style="edgeStyle=orthogonalEdgeStyle;orthogonalLoop=1;jettySize=auto;html=1;entryX=0;entryY=0.5;entryDx=0;entryDy=0;dashed=1;" parent="pgluA2IQeVN8h7WU6u9w-42" source="pgluA2IQeVN8h7WU6u9w-28" target="pgluA2IQeVN8h7WU6u9w-30" edge="1">
          <mxGeometry relative="1" as="geometry">
            <Array as="points">
              <mxPoint x="195" y="174" />
              <mxPoint x="195" y="320" />
            </Array>
          </mxGeometry>
        </mxCell>
        <mxCell id="pgluA2IQeVN8h7WU6u9w-31" value="&lt;font style=&quot;font-size: 20px&quot;&gt;Update User&lt;/font&gt;" style="ellipse;whiteSpace=wrap;html=1;" parent="pgluA2IQeVN8h7WU6u9w-42" vertex="1">
          <mxGeometry x="287.77777777777777" y="412.40425531914894" width="143.88888888888889" height="105.74468085106383" as="geometry" />
        </mxCell>
        <mxCell id="pgluA2IQeVN8h7WU6u9w-35" style="edgeStyle=orthogonalEdgeStyle;orthogonalLoop=1;jettySize=auto;html=1;entryX=0;entryY=0.5;entryDx=0;entryDy=0;dashed=1;" parent="pgluA2IQeVN8h7WU6u9w-42" source="pgluA2IQeVN8h7WU6u9w-28" target="pgluA2IQeVN8h7WU6u9w-31" edge="1">
          <mxGeometry relative="1" as="geometry">
            <Array as="points">
              <mxPoint x="195" y="174" />
              <mxPoint x="195" y="465" />
            </Array>
          </mxGeometry>
        </mxCell>
        <mxCell id="pgluA2IQeVN8h7WU6u9w-32" value="&lt;font style=&quot;font-size: 20px&quot;&gt;View User&lt;/font&gt;" style="ellipse;whiteSpace=wrap;html=1;" parent="pgluA2IQeVN8h7WU6u9w-42" vertex="1">
          <mxGeometry x="287.77777777777777" y="558.936170212766" width="143.88888888888889" height="105.74468085106383" as="geometry" />
        </mxCell>
        <mxCell id="pgluA2IQeVN8h7WU6u9w-36" style="edgeStyle=orthogonalEdgeStyle;orthogonalLoop=1;jettySize=auto;html=1;entryX=0;entryY=0.5;entryDx=0;entryDy=0;dashed=1;endArrow=open;endFill=0;" parent="pgluA2IQeVN8h7WU6u9w-42" source="pgluA2IQeVN8h7WU6u9w-28" target="pgluA2IQeVN8h7WU6u9w-32" edge="1">
          <mxGeometry relative="1" as="geometry">
            <Array as="points">
              <mxPoint x="195.27777777777777" y="173.72340425531917" />
              <mxPoint x="195.27777777777777" y="611.8085106382979" />
            </Array>
          </mxGeometry>
        </mxCell>
        <mxCell id="pgluA2IQeVN8h7WU6u9w-39" value="&lt;font style=&quot;font-size: 18px&quot;&gt;&amp;lt;&amp;lt;include&amp;gt;&amp;gt;&lt;/font&gt;" style="text;html=1;align=center;verticalAlign=middle;resizable=0;points=[];autosize=1;strokeColor=none;" parent="pgluA2IQeVN8h7WU6u9w-42" vertex="1">
          <mxGeometry x="179.16777777777776" y="301.91893617021276" width="110" height="20" as="geometry" />
        </mxCell>
        <mxCell id="pgluA2IQeVN8h7WU6u9w-40" value="&lt;font style=&quot;font-size: 18px&quot;&gt;&amp;lt;&amp;lt;include&amp;gt;&amp;gt;&lt;/font&gt;" style="text;html=1;align=center;verticalAlign=middle;resizable=0;points=[];autosize=1;strokeColor=none;" parent="pgluA2IQeVN8h7WU6u9w-42" vertex="1">
          <mxGeometry x="180.27777777777777" y="441.9114893617022" width="110" height="20" as="geometry" />
        </mxCell>
        <mxCell id="pgluA2IQeVN8h7WU6u9w-41" value="&lt;font style=&quot;font-size: 18px&quot;&gt;&amp;lt;&amp;lt;include&amp;gt;&amp;gt;&lt;/font&gt;" style="text;html=1;align=center;verticalAlign=middle;resizable=0;points=[];autosize=1;strokeColor=none;" parent="pgluA2IQeVN8h7WU6u9w-42" vertex="1">
          <mxGeometry x="180.27777777777777" y="589.1489361702128" width="110" height="20" as="geometry" />
        </mxCell>
        <mxCell id="pgluA2IQeVN8h7WU6u9w-37" value="&lt;font style=&quot;font-size: 18px&quot;&gt;&amp;lt;&amp;lt;include&amp;gt;&amp;gt;&lt;/font&gt;" style="text;html=1;align=center;verticalAlign=middle;resizable=0;points=[];autosize=1;strokeColor=none;" parent="pgluA2IQeVN8h7WU6u9w-42" vertex="1">
          <mxGeometry x="180.27777777777777" y="151.06382978723406" width="110" height="20" as="geometry" />
        </mxCell>
        <mxCell id="pgluA2IQeVN8h7WU6u9w-60" value="&lt;font style=&quot;font-size: 20px&quot;&gt;Login&lt;/font&gt;" style="ellipse;whiteSpace=wrap;html=1;" parent="pgluA2IQeVN8h7WU6u9w-4" vertex="1">
          <mxGeometry x="82.22222222222221" y="75.53191489361703" width="143.88888888888889" height="105.74468085106383" as="geometry" />
        </mxCell>
        <mxCell id="pgluA2IQeVN8h7WU6u9w-62" style="edgeStyle=orthogonalEdgeStyle;orthogonalLoop=1;jettySize=auto;html=1;entryX=0.5;entryY=1;entryDx=0;entryDy=0;dashed=1;endArrow=open;endFill=0;" parent="pgluA2IQeVN8h7WU6u9w-4" source="pgluA2IQeVN8h7WU6u9w-61" target="pgluA2IQeVN8h7WU6u9w-60" edge="1">
          <mxGeometry relative="1" as="geometry" />
        </mxCell>
        <mxCell id="pgluA2IQeVN8h7WU6u9w-61" value="&lt;font style=&quot;font-size: 20px&quot;&gt;Register&lt;/font&gt;" style="ellipse;whiteSpace=wrap;html=1;" parent="pgluA2IQeVN8h7WU6u9w-4" vertex="1">
          <mxGeometry x="82.22222222222221" y="256.8085106382979" width="143.88888888888889" height="105.74468085106383" as="geometry" />
        </mxCell>
        <mxCell id="pgluA2IQeVN8h7WU6u9w-63" value="&lt;font style=&quot;font-size: 18px&quot;&gt;&amp;lt;&amp;lt;include&amp;gt;&amp;gt;&lt;/font&gt;" style="text;html=1;align=center;verticalAlign=middle;resizable=0;points=[];autosize=1;strokeColor=none;" parent="pgluA2IQeVN8h7WU6u9w-4" vertex="1">
          <mxGeometry x="128.88888888888889" y="211.48936170212767" width="110" height="20" as="geometry" />
        </mxCell>
        <mxCell id="Jl6FXFOsZRHuZ6ULyxE7-22" value="" style="group;" parent="pgluA2IQeVN8h7WU6u9w-4" vertex="1" connectable="0">
          <mxGeometry x="606.3888888888888" y="770.4255319148937" width="421.38888888888886" height="554.1478723404256" as="geometry" />
        </mxCell>
        <mxCell id="Jl6FXFOsZRHuZ6ULyxE7-23" value="&lt;font style=&quot;font-size: 20px&quot;&gt;Manage Files&lt;/font&gt;" style="ellipse;whiteSpace=wrap;html=1;" parent="Jl6FXFOsZRHuZ6ULyxE7-22" vertex="1">
          <mxGeometry x="10" y="69.57" width="143.88888888888889" height="105.74468085106383" as="geometry" />
        </mxCell>
        <mxCell id="Jl6FXFOsZRHuZ6ULyxE7-24" value="&lt;font style=&quot;font-size: 20px&quot;&gt;Upload File&lt;/font&gt;" style="ellipse;whiteSpace=wrap;html=1;" parent="Jl6FXFOsZRHuZ6ULyxE7-22" vertex="1">
          <mxGeometry x="287.5" y="69.57" width="143.88888888888889" height="105.74468085106383" as="geometry" />
        </mxCell>
        <mxCell id="Jl6FXFOsZRHuZ6ULyxE7-25" style="edgeStyle=orthogonalEdgeStyle;orthogonalLoop=1;jettySize=auto;html=1;exitX=1;exitY=0.5;exitDx=0;exitDy=0;dashed=1;" parent="Jl6FXFOsZRHuZ6ULyxE7-22" source="Jl6FXFOsZRHuZ6ULyxE7-23" target="Jl6FXFOsZRHuZ6ULyxE7-24" edge="1">
          <mxGeometry relative="1" as="geometry" />
        </mxCell>
        <mxCell id="Jl6FXFOsZRHuZ6ULyxE7-26" value="&lt;font style=&quot;font-size: 20px&quot;&gt;Delete File&lt;/font&gt;" style="ellipse;whiteSpace=wrap;html=1;" parent="Jl6FXFOsZRHuZ6ULyxE7-22" vertex="1">
          <mxGeometry x="287.5" y="213.14446808510633" width="143.88888888888889" height="105.74468085106383" as="geometry" />
        </mxCell>
        <mxCell id="Jl6FXFOsZRHuZ6ULyxE7-27" style="edgeStyle=orthogonalEdgeStyle;orthogonalLoop=1;jettySize=auto;html=1;entryX=0;entryY=0.5;entryDx=0;entryDy=0;dashed=1;" parent="Jl6FXFOsZRHuZ6ULyxE7-22" source="Jl6FXFOsZRHuZ6ULyxE7-23" target="Jl6FXFOsZRHuZ6ULyxE7-26" edge="1">
          <mxGeometry relative="1" as="geometry">
            <Array as="points">
              <mxPoint x="195" y="122.57" />
              <mxPoint x="195" y="265.57" />
            </Array>
          </mxGeometry>
        </mxCell>
        <mxCell id="Jl6FXFOsZRHuZ6ULyxE7-28" value="&lt;font style=&quot;font-size: 20px&quot;&gt;Update File&lt;/font&gt;" style="ellipse;whiteSpace=wrap;html=1;" parent="Jl6FXFOsZRHuZ6ULyxE7-22" vertex="1">
          <mxGeometry x="287.5" y="357.1444680851063" width="143.88888888888889" height="105.74468085106383" as="geometry" />
        </mxCell>
        <mxCell id="Jl6FXFOsZRHuZ6ULyxE7-29" style="edgeStyle=orthogonalEdgeStyle;orthogonalLoop=1;jettySize=auto;html=1;entryX=0;entryY=0.5;entryDx=0;entryDy=0;dashed=1;" parent="Jl6FXFOsZRHuZ6ULyxE7-22" source="Jl6FXFOsZRHuZ6ULyxE7-23" target="Jl6FXFOsZRHuZ6ULyxE7-28" edge="1">
          <mxGeometry relative="1" as="geometry">
            <Array as="points">
              <mxPoint x="195" y="122.57" />
              <mxPoint x="195" y="409.57" />
              <mxPoint x="288" y="409.57" />
            </Array>
          </mxGeometry>
        </mxCell>
        <mxCell id="Jl6FXFOsZRHuZ6ULyxE7-30" value="&lt;font style=&quot;font-size: 20px&quot;&gt;View File&lt;/font&gt;" style="ellipse;whiteSpace=wrap;html=1;" parent="Jl6FXFOsZRHuZ6ULyxE7-22" vertex="1">
          <mxGeometry x="287.5" y="501.1444680851063" width="143.88888888888889" height="105.74468085106383" as="geometry" />
        </mxCell>
        <mxCell id="Jl6FXFOsZRHuZ6ULyxE7-31" style="edgeStyle=orthogonalEdgeStyle;orthogonalLoop=1;jettySize=auto;html=1;entryX=0;entryY=0.5;entryDx=0;entryDy=0;dashed=1;endArrow=open;endFill=0;" parent="Jl6FXFOsZRHuZ6ULyxE7-22" source="Jl6FXFOsZRHuZ6ULyxE7-23" target="Jl6FXFOsZRHuZ6ULyxE7-30" edge="1">
          <mxGeometry relative="1" as="geometry">
            <Array as="points">
              <mxPoint x="195" y="122.57" />
              <mxPoint x="195" y="553.57" />
              <mxPoint x="288" y="553.57" />
            </Array>
          </mxGeometry>
        </mxCell>
        <mxCell id="Jl6FXFOsZRHuZ6ULyxE7-32" value="&lt;font style=&quot;font-size: 18px&quot;&gt;&amp;lt;&amp;lt;include&amp;gt;&amp;gt;&lt;/font&gt;" style="text;html=1;align=center;verticalAlign=middle;resizable=0;points=[];autosize=1;strokeColor=none;" parent="Jl6FXFOsZRHuZ6ULyxE7-22" vertex="1">
          <mxGeometry x="184.99999999999997" y="249.14787234042552" width="110" height="20" as="geometry" />
        </mxCell>
        <mxCell id="Jl6FXFOsZRHuZ6ULyxE7-33" value="&lt;font style=&quot;font-size: 18px&quot;&gt;&amp;lt;&amp;lt;include&amp;gt;&amp;gt;&lt;/font&gt;" style="text;html=1;align=center;verticalAlign=middle;resizable=0;points=[];autosize=1;strokeColor=none;" parent="Jl6FXFOsZRHuZ6ULyxE7-22" vertex="1">
          <mxGeometry x="184.99999999999997" y="389.1404255319149" width="110" height="20" as="geometry" />
        </mxCell>
        <mxCell id="Jl6FXFOsZRHuZ6ULyxE7-34" value="&lt;font style=&quot;font-size: 18px&quot;&gt;&amp;lt;&amp;lt;include&amp;gt;&amp;gt;&lt;/font&gt;" style="text;html=1;align=center;verticalAlign=middle;resizable=0;points=[];autosize=1;strokeColor=none;" parent="Jl6FXFOsZRHuZ6ULyxE7-22" vertex="1">
          <mxGeometry x="183.99999999999997" y="534.1478723404256" width="110" height="20" as="geometry" />
        </mxCell>
        <mxCell id="Jl6FXFOsZRHuZ6ULyxE7-35" value="&lt;font style=&quot;font-size: 18px&quot;&gt;&amp;lt;&amp;lt;include&amp;gt;&amp;gt;&lt;/font&gt;" style="text;html=1;align=center;verticalAlign=middle;resizable=0;points=[];autosize=1;strokeColor=none;" parent="Jl6FXFOsZRHuZ6ULyxE7-22" vertex="1">
          <mxGeometry x="179.99999999999997" y="99.78276595744681" width="110" height="20" as="geometry" />
        </mxCell>
        <mxCell id="Jl6FXFOsZRHuZ6ULyxE7-0" value="&lt;font style=&quot;font-size: 20px&quot;&gt;Create Folder&lt;/font&gt;" style="ellipse;whiteSpace=wrap;html=1;" parent="pgluA2IQeVN8h7WU6u9w-4" vertex="1">
          <mxGeometry x="883.8888888888888" y="90.63829787234043" width="143.88888888888889" height="105.74468085106383" as="geometry" />
        </mxCell>
        <mxCell id="Jl6FXFOsZRHuZ6ULyxE7-1" value="&lt;font style=&quot;font-size: 20px&quot;&gt;Update Folder&lt;/font&gt;" style="ellipse;whiteSpace=wrap;html=1;" parent="pgluA2IQeVN8h7WU6u9w-4" vertex="1">
          <mxGeometry x="883.8888888888888" y="252.27659574468086" width="143.88888888888889" height="105.74468085106383" as="geometry" />
        </mxCell>
        <mxCell id="Jl6FXFOsZRHuZ6ULyxE7-2" value="&lt;font style=&quot;font-size: 20px&quot;&gt;Delete Folder&lt;/font&gt;" style="ellipse;whiteSpace=wrap;html=1;" parent="pgluA2IQeVN8h7WU6u9w-4" vertex="1">
          <mxGeometry x="883.8888888888888" y="413.9148936170213" width="143.88888888888889" height="105.74468085106383" as="geometry" />
        </mxCell>
        <mxCell id="Jl6FXFOsZRHuZ6ULyxE7-4" value="&lt;font style=&quot;font-size: 20px&quot;&gt;View Folder&lt;/font&gt;" style="ellipse;whiteSpace=wrap;html=1;" parent="pgluA2IQeVN8h7WU6u9w-4" vertex="1">
          <mxGeometry x="883.8888888888888" y="545.3431914893617" width="143.88888888888889" height="105.74468085106383" as="geometry" />
        </mxCell>
        <mxCell id="Jl6FXFOsZRHuZ6ULyxE7-13" style="edgeStyle=orthogonalEdgeStyle;orthogonalLoop=1;jettySize=auto;html=1;dashed=1;endArrow=classic;endFill=0;" parent="pgluA2IQeVN8h7WU6u9w-4" source="Jl6FXFOsZRHuZ6ULyxE7-12" target="Jl6FXFOsZRHuZ6ULyxE7-0" edge="1">
          <mxGeometry x="791.3888888888888" y="-1525.744680851064" as="geometry" />
        </mxCell>
        <mxCell id="Jl6FXFOsZRHuZ6ULyxE7-14" style="edgeStyle=orthogonalEdgeStyle;orthogonalLoop=1;jettySize=auto;html=1;entryX=0;entryY=0.5;entryDx=0;entryDy=0;dashed=1;endArrow=classic;endFill=0;" parent="pgluA2IQeVN8h7WU6u9w-4" source="Jl6FXFOsZRHuZ6ULyxE7-12" target="Jl6FXFOsZRHuZ6ULyxE7-1" edge="1">
          <mxGeometry x="791.3888888888888" y="-1525.744680851064" as="geometry">
            <Array as="points">
              <mxPoint x="770.8333333333333" y="143.51063829787233" />
              <mxPoint x="770.8333333333333" y="305.1489361702128" />
            </Array>
          </mxGeometry>
        </mxCell>
        <mxCell id="Jl6FXFOsZRHuZ6ULyxE7-15" style="edgeStyle=orthogonalEdgeStyle;orthogonalLoop=1;jettySize=auto;html=1;entryX=0;entryY=0.5;entryDx=0;entryDy=0;dashed=1;endArrow=classic;endFill=0;" parent="pgluA2IQeVN8h7WU6u9w-4" source="Jl6FXFOsZRHuZ6ULyxE7-12" target="Jl6FXFOsZRHuZ6ULyxE7-2" edge="1">
          <mxGeometry x="791.3888888888888" y="-1525.744680851064" as="geometry">
            <Array as="points">
              <mxPoint x="770.8333333333333" y="143.51063829787233" />
              <mxPoint x="770.8333333333333" y="466.7872340425532" />
            </Array>
          </mxGeometry>
        </mxCell>
        <mxCell id="Jl6FXFOsZRHuZ6ULyxE7-16" style="edgeStyle=orthogonalEdgeStyle;orthogonalLoop=1;jettySize=auto;html=1;entryX=0;entryY=0.5;entryDx=0;entryDy=0;dashed=1;endArrow=classic;endFill=0;" parent="pgluA2IQeVN8h7WU6u9w-4" source="Jl6FXFOsZRHuZ6ULyxE7-12" target="Jl6FXFOsZRHuZ6ULyxE7-4" edge="1">
          <mxGeometry x="791.3888888888888" y="-1525.744680851064" as="geometry">
            <Array as="points">
              <mxPoint x="771" y="143" />
              <mxPoint x="771" y="598" />
            </Array>
          </mxGeometry>
        </mxCell>
        <mxCell id="-didQ_hXLUrym4Irgyjn-217" style="edgeStyle=orthogonalEdgeStyle;rounded=0;orthogonalLoop=1;jettySize=auto;html=1;entryX=0;entryY=0.5;entryDx=0;entryDy=0;dashed=1;endArrow=block;endFill=0;" edge="1" parent="pgluA2IQeVN8h7WU6u9w-4" source="Jl6FXFOsZRHuZ6ULyxE7-12" target="-didQ_hXLUrym4Irgyjn-214">
          <mxGeometry relative="1" as="geometry">
            <Array as="points">
              <mxPoint x="771" y="143" />
              <mxPoint x="771" y="748" />
            </Array>
          </mxGeometry>
        </mxCell>
        <mxCell id="Jl6FXFOsZRHuZ6ULyxE7-12" value="&lt;font style=&quot;font-size: 20px&quot;&gt;Manage Folders&lt;/font&gt;" style="ellipse;whiteSpace=wrap;html=1;" parent="pgluA2IQeVN8h7WU6u9w-4" vertex="1">
          <mxGeometry x="596.1111111111111" y="90.63829787234043" width="143.88888888888889" height="105.74468085106383" as="geometry" />
        </mxCell>
        <mxCell id="Jl6FXFOsZRHuZ6ULyxE7-17" value="&lt;font style=&quot;font-size: 18px&quot;&gt;&amp;lt;&amp;lt;include&amp;gt;&amp;gt;&lt;/font&gt;" style="text;html=1;align=center;verticalAlign=middle;resizable=0;points=[];autosize=1;strokeColor=none;" parent="pgluA2IQeVN8h7WU6u9w-4" vertex="1">
          <mxGeometry x="766.1111111111111" y="120.85106382978724" width="110" height="20" as="geometry" />
        </mxCell>
        <mxCell id="Jl6FXFOsZRHuZ6ULyxE7-19" value="&lt;font style=&quot;font-size: 18px&quot;&gt;&amp;lt;&amp;lt;include&amp;gt;&amp;gt;&lt;/font&gt;" style="text;html=1;align=center;verticalAlign=middle;resizable=0;points=[];autosize=1;strokeColor=none;" parent="pgluA2IQeVN8h7WU6u9w-4" vertex="1">
          <mxGeometry x="766.1111111111111" y="438.0851063829787" width="110" height="20" as="geometry" />
        </mxCell>
        <mxCell id="Jl6FXFOsZRHuZ6ULyxE7-20" value="&lt;font style=&quot;font-size: 18px&quot;&gt;&amp;lt;&amp;lt;include&amp;gt;&amp;gt;&lt;/font&gt;" style="text;html=1;align=center;verticalAlign=middle;resizable=0;points=[];autosize=1;strokeColor=none;" parent="pgluA2IQeVN8h7WU6u9w-4" vertex="1">
          <mxGeometry x="766.1066666666667" y="577.1353191489362" width="110" height="20" as="geometry" />
        </mxCell>
        <mxCell id="-didQ_hXLUrym4Irgyjn-216" style="edgeStyle=orthogonalEdgeStyle;rounded=0;orthogonalLoop=1;jettySize=auto;html=1;entryX=1;entryY=0.5;entryDx=0;entryDy=0;dashed=1;" edge="1" parent="pgluA2IQeVN8h7WU6u9w-4" source="hYKN5bIOJs0yOzT2j8Kd-4" target="Jl6FXFOsZRHuZ6ULyxE7-4">
          <mxGeometry relative="1" as="geometry">
            <Array as="points">
              <mxPoint x="1028" y="492" />
            </Array>
          </mxGeometry>
        </mxCell>
        <mxCell id="hYKN5bIOJs0yOzT2j8Kd-4" value="&lt;font style=&quot;font-size: 20px&quot;&gt;Filter Folders&lt;/font&gt;" style="ellipse;whiteSpace=wrap;html=1;" parent="pgluA2IQeVN8h7WU6u9w-4" vertex="1">
          <mxGeometry x="1139.3655555555554" y="438.0895744680851" width="143.88888888888889" height="105.74468085106383" as="geometry" />
        </mxCell>
        <mxCell id="hYKN5bIOJs0yOzT2j8Kd-16" value="&lt;font style=&quot;font-size: 20px&quot;&gt;Add a file to a folder&lt;/font&gt;" style="ellipse;whiteSpace=wrap;html=1;" parent="pgluA2IQeVN8h7WU6u9w-4" vertex="1">
          <mxGeometry x="893.8855555555555" y="1415.57" width="143.88888888888889" height="105.74468085106383" as="geometry" />
        </mxCell>
        <mxCell id="hYKN5bIOJs0yOzT2j8Kd-17" value="&lt;font style=&quot;font-size: 20px&quot;&gt;Filter Files&lt;/font&gt;" style="ellipse;whiteSpace=wrap;html=1;" parent="pgluA2IQeVN8h7WU6u9w-4" vertex="1">
          <mxGeometry x="1158.4755555555555" y="1217.6551063829786" width="143.88888888888889" height="105.74468085106383" as="geometry" />
        </mxCell>
        <mxCell id="hYKN5bIOJs0yOzT2j8Kd-24" style="edgeStyle=orthogonalEdgeStyle;orthogonalLoop=1;jettySize=auto;html=1;entryX=0;entryY=0.5;entryDx=0;entryDy=0;dashed=1;endArrow=none;endFill=0;startArrow=block;startFill=0;" parent="pgluA2IQeVN8h7WU6u9w-4" source="Jl6FXFOsZRHuZ6ULyxE7-30" target="hYKN5bIOJs0yOzT2j8Kd-17" edge="1">
          <mxGeometry relative="1" as="geometry">
            <Array as="points">
              <mxPoint x="1058.3333333333333" y="1330.9529787234042" />
              <mxPoint x="1058.3333333333333" y="1270.5274468085106" />
            </Array>
          </mxGeometry>
        </mxCell>
        <mxCell id="hYKN5bIOJs0yOzT2j8Kd-30" value="&lt;font style=&quot;font-size: 18px&quot;&gt;&amp;lt;&amp;lt;extend&amp;gt;&amp;gt;&lt;/font&gt;" style="text;html=1;align=center;verticalAlign=middle;resizable=0;points=[];autosize=1;strokeColor=none;" parent="pgluA2IQeVN8h7WU6u9w-4" vertex="1">
          <mxGeometry x="1048.4722222222222" y="1247.8678723404255" width="110" height="20" as="geometry" />
        </mxCell>
        <mxCell id="-didQ_hXLUrym4Irgyjn-215" style="edgeStyle=orthogonalEdgeStyle;rounded=0;orthogonalLoop=1;jettySize=auto;html=1;entryX=1;entryY=0.5;entryDx=0;entryDy=0;dashed=1;" edge="1" parent="pgluA2IQeVN8h7WU6u9w-4" source="hYKN5bIOJs0yOzT2j8Kd-41" target="Jl6FXFOsZRHuZ6ULyxE7-4">
          <mxGeometry relative="1" as="geometry">
            <Array as="points">
              <mxPoint x="1146" y="640" />
              <mxPoint x="1028" y="640" />
            </Array>
          </mxGeometry>
        </mxCell>
        <mxCell id="hYKN5bIOJs0yOzT2j8Kd-41" value="&lt;font style=&quot;font-size: 20px&quot;&gt;Export CSV&lt;/font&gt;" style="ellipse;whiteSpace=wrap;html=1;" parent="pgluA2IQeVN8h7WU6u9w-4" vertex="1">
          <mxGeometry x="1143.4755555555553" y="577.1308510638297" width="143.88888888888889" height="105.74468085106383" as="geometry" />
        </mxCell>
        <mxCell id="hYKN5bIOJs0yOzT2j8Kd-42" value="&lt;font style=&quot;font-size: 18px&quot;&gt;&amp;lt;&amp;lt;extend&amp;gt;&amp;gt;&lt;/font&gt;" style="text;html=1;align=center;verticalAlign=middle;resizable=0;points=[];autosize=1;strokeColor=none;" parent="pgluA2IQeVN8h7WU6u9w-4" vertex="1">
          <mxGeometry x="1022.7733333333333" y="620.0036170212767" width="110" height="20" as="geometry" />
        </mxCell>
        <mxCell id="hYKN5bIOJs0yOzT2j8Kd-7" value="&lt;font style=&quot;font-size: 18px&quot;&gt;&amp;lt;&amp;lt;extend&amp;gt;&amp;gt;&lt;/font&gt;" style="text;html=1;align=center;verticalAlign=middle;resizable=0;points=[];autosize=1;strokeColor=none;" parent="pgluA2IQeVN8h7WU6u9w-4" vertex="1">
          <mxGeometry x="1022.7733333333333" y="476.00042553191486" width="110" height="20" as="geometry" />
        </mxCell>
        <mxCell id="hYKN5bIOJs0yOzT2j8Kd-47" style="edgeStyle=orthogonalEdgeStyle;orthogonalLoop=1;jettySize=auto;html=1;entryX=1;entryY=0.5;entryDx=0;entryDy=0;dashed=1;startArrow=none;startFill=0;endArrow=block;endFill=0;" parent="pgluA2IQeVN8h7WU6u9w-4" source="hYKN5bIOJs0yOzT2j8Kd-45" target="Jl6FXFOsZRHuZ6ULyxE7-30" edge="1">
          <mxGeometry relative="1" as="geometry">
            <Array as="points">
              <mxPoint x="1058.3333333333333" y="1421.5912765957446" />
              <mxPoint x="1058.3333333333333" y="1330.9529787234042" />
            </Array>
          </mxGeometry>
        </mxCell>
        <mxCell id="hYKN5bIOJs0yOzT2j8Kd-45" value="&lt;font style=&quot;font-size: 20px&quot;&gt;Export CSV&lt;/font&gt;" style="ellipse;whiteSpace=wrap;html=1;" parent="pgluA2IQeVN8h7WU6u9w-4" vertex="1">
          <mxGeometry x="1158.4755555555555" y="1363.8289361702127" width="143.88888888888889" height="105.74468085106383" as="geometry" />
        </mxCell>
        <mxCell id="hYKN5bIOJs0yOzT2j8Kd-46" value="&lt;font style=&quot;font-size: 18px&quot;&gt;&amp;lt;&amp;lt;extend&amp;gt;&amp;gt;&lt;/font&gt;" style="text;html=1;align=center;verticalAlign=middle;resizable=0;points=[];autosize=1;strokeColor=none;" parent="pgluA2IQeVN8h7WU6u9w-4" vertex="1">
          <mxGeometry x="1048.471111111111" y="1395.5717021276596" width="110" height="20" as="geometry" />
        </mxCell>
        <mxCell id="vQRAYJaMJyTdqr4Sgmva-4" value="" style="group;" parent="pgluA2IQeVN8h7WU6u9w-4" vertex="1" connectable="0">
          <mxGeometry x="596.1111111111111" y="1620.9148936170213" width="667.0277777777777" height="429.0212765957447" as="geometry" />
        </mxCell>
        <mxCell id="hYKN5bIOJs0yOzT2j8Kd-31" value="&lt;font style=&quot;font-size: 20px&quot;&gt;Filter ACLs&lt;/font&gt;" style="ellipse;whiteSpace=wrap;html=1;" parent="vQRAYJaMJyTdqr4Sgmva-4" vertex="1">
          <mxGeometry x="561.3388888888887" y="382.3665957446809" width="143.88888888888889" height="105.74468085106383" as="geometry" />
        </mxCell>
        <mxCell id="hYKN5bIOJs0yOzT2j8Kd-32" value="&lt;font style=&quot;font-size: 20px&quot;&gt;Search in ACL sources&lt;/font&gt;" style="ellipse;whiteSpace=wrap;html=1;" parent="vQRAYJaMJyTdqr4Sgmva-4" vertex="1">
          <mxGeometry x="561.9488888888887" y="239.08787234042552" width="143.88888888888889" height="105.74468085106383" as="geometry" />
        </mxCell>
        <mxCell id="hYKN5bIOJs0yOzT2j8Kd-33" style="edgeStyle=orthogonalEdgeStyle;orthogonalLoop=1;jettySize=auto;html=1;entryX=0;entryY=0.5;entryDx=0;entryDy=0;dashed=1;startArrow=block;startFill=0;endArrow=none;endFill=0;" parent="vQRAYJaMJyTdqr4Sgmva-4" source="Jl6FXFOsZRHuZ6ULyxE7-53" target="hYKN5bIOJs0yOzT2j8Kd-32" edge="1">
          <mxGeometry relative="1" as="geometry">
            <Array as="points">
              <mxPoint x="461.4744444444444" y="435.2389361702128" />
              <mxPoint x="461.4744444444444" y="296.2602127659575" />
            </Array>
          </mxGeometry>
        </mxCell>
        <mxCell id="hYKN5bIOJs0yOzT2j8Kd-34" style="edgeStyle=orthogonalEdgeStyle;orthogonalLoop=1;jettySize=auto;html=1;dashed=1;startArrow=block;startFill=0;endArrow=none;endFill=0;" parent="vQRAYJaMJyTdqr4Sgmva-4" source="Jl6FXFOsZRHuZ6ULyxE7-53" target="hYKN5bIOJs0yOzT2j8Kd-31" edge="1">
          <mxGeometry relative="1" as="geometry" />
        </mxCell>
        <mxCell id="hYKN5bIOJs0yOzT2j8Kd-36" value="&lt;font style=&quot;font-size: 18px&quot;&gt;&amp;lt;&amp;lt;extend&amp;gt;&amp;gt;&lt;/font&gt;" style="text;html=1;align=center;verticalAlign=middle;resizable=0;points=[];autosize=1;strokeColor=none;" parent="vQRAYJaMJyTdqr4Sgmva-4" vertex="1">
          <mxGeometry x="451.9455555555555" y="409.0168085106384" width="110" height="20" as="geometry" />
        </mxCell>
        <mxCell id="hYKN5bIOJs0yOzT2j8Kd-48" value="&lt;font style=&quot;font-size: 20px&quot;&gt;Export CSV&lt;/font&gt;" style="ellipse;whiteSpace=wrap;html=1;" parent="vQRAYJaMJyTdqr4Sgmva-4" vertex="1">
          <mxGeometry x="561.3388888888887" y="109.08914893617023" width="143.88888888888889" height="105.74468085106383" as="geometry" />
        </mxCell>
        <mxCell id="hYKN5bIOJs0yOzT2j8Kd-50" value="&lt;font style=&quot;font-size: 18px&quot;&gt;&amp;lt;&amp;lt;extends&amp;gt;&amp;gt;&lt;/font&gt;" style="text;html=1;align=center;verticalAlign=middle;resizable=0;points=[];autosize=1;strokeColor=none;" parent="vQRAYJaMJyTdqr4Sgmva-4" vertex="1">
          <mxGeometry x="441.9466666666666" y="139.08808510638298" width="120" height="20" as="geometry" />
        </mxCell>
        <mxCell id="hYKN5bIOJs0yOzT2j8Kd-35" value="&lt;font style=&quot;font-size: 18px&quot;&gt;&amp;lt;&amp;lt;extends&amp;gt;&amp;gt;&lt;/font&gt;" style="text;html=1;align=center;verticalAlign=middle;resizable=0;points=[];autosize=1;strokeColor=none;" parent="vQRAYJaMJyTdqr4Sgmva-4" vertex="1">
          <mxGeometry x="441.33555555555546" y="270.5793617021277" width="120" height="20" as="geometry" />
        </mxCell>
        <mxCell id="Jl6FXFOsZRHuZ6ULyxE7-51" value="&lt;font style=&quot;font-size: 20px&quot;&gt;Grant ACL&lt;/font&gt;" style="ellipse;whiteSpace=wrap;html=1;" parent="vQRAYJaMJyTdqr4Sgmva-4" vertex="1">
          <mxGeometry x="298.05777777777774" y="59.09" width="143.88888888888889" height="105.74468085106383" as="geometry" />
        </mxCell>
        <mxCell id="Jl6FXFOsZRHuZ6ULyxE7-52" value="&lt;font style=&quot;font-size: 20px&quot;&gt;Delete ACL&lt;/font&gt;" style="ellipse;whiteSpace=wrap;html=1;" parent="vQRAYJaMJyTdqr4Sgmva-4" vertex="1">
          <mxGeometry x="298.05777777777774" y="220.72829787234045" width="143.88888888888889" height="105.74468085106383" as="geometry" />
        </mxCell>
        <mxCell id="Jl6FXFOsZRHuZ6ULyxE7-53" value="&lt;font style=&quot;font-size: 20px&quot;&gt;View ACL&lt;/font&gt;" style="ellipse;whiteSpace=wrap;html=1;" parent="vQRAYJaMJyTdqr4Sgmva-4" vertex="1">
          <mxGeometry x="298.05777777777774" y="382.3665957446809" width="143.88888888888889" height="105.74468085106383" as="geometry" />
        </mxCell>
        <mxCell id="Jl6FXFOsZRHuZ6ULyxE7-55" style="edgeStyle=orthogonalEdgeStyle;orthogonalLoop=1;jettySize=auto;html=1;dashed=1;endArrow=classic;endFill=0;" parent="vQRAYJaMJyTdqr4Sgmva-4" source="Jl6FXFOsZRHuZ6ULyxE7-59" target="Jl6FXFOsZRHuZ6ULyxE7-51" edge="1">
          <mxGeometry x="267.2244444444444" y="-907.7185106382979" as="geometry" />
        </mxCell>
        <mxCell id="Jl6FXFOsZRHuZ6ULyxE7-56" style="edgeStyle=orthogonalEdgeStyle;orthogonalLoop=1;jettySize=auto;html=1;entryX=0;entryY=0.5;entryDx=0;entryDy=0;dashed=1;endArrow=classic;endFill=0;" parent="vQRAYJaMJyTdqr4Sgmva-4" source="Jl6FXFOsZRHuZ6ULyxE7-59" target="Jl6FXFOsZRHuZ6ULyxE7-52" edge="1">
          <mxGeometry x="267.2244444444444" y="-907.7185106382979" as="geometry">
            <Array as="points">
              <mxPoint x="185.0022222222222" y="111.96234042553192" />
              <mxPoint x="185.0022222222222" y="273.60063829787237" />
            </Array>
          </mxGeometry>
        </mxCell>
        <mxCell id="Jl6FXFOsZRHuZ6ULyxE7-57" style="edgeStyle=orthogonalEdgeStyle;orthogonalLoop=1;jettySize=auto;html=1;entryX=0;entryY=0.5;entryDx=0;entryDy=0;dashed=1;endArrow=classic;endFill=0;" parent="vQRAYJaMJyTdqr4Sgmva-4" source="Jl6FXFOsZRHuZ6ULyxE7-59" target="Jl6FXFOsZRHuZ6ULyxE7-53" edge="1">
          <mxGeometry x="267.2244444444444" y="-907.7185106382979" as="geometry">
            <Array as="points">
              <mxPoint x="185.0022222222222" y="111.96234042553192" />
              <mxPoint x="185.0022222222222" y="435.2389361702128" />
            </Array>
          </mxGeometry>
        </mxCell>
        <mxCell id="Jl6FXFOsZRHuZ6ULyxE7-59" value="&lt;font style=&quot;font-size: 20px&quot;&gt;Manage ACLs&lt;/font&gt;" style="ellipse;whiteSpace=wrap;html=1;" parent="vQRAYJaMJyTdqr4Sgmva-4" vertex="1">
          <mxGeometry x="10.28" y="59.09" width="143.88888888888889" height="105.74468085106383" as="geometry" />
        </mxCell>
        <mxCell id="Jl6FXFOsZRHuZ6ULyxE7-61" value="&lt;font style=&quot;font-size: 18px&quot;&gt;&amp;lt;&amp;lt;include&amp;gt;&amp;gt;&lt;/font&gt;" style="text;html=1;align=center;verticalAlign=middle;resizable=0;points=[];autosize=1;strokeColor=none;" parent="vQRAYJaMJyTdqr4Sgmva-4" vertex="1">
          <mxGeometry x="180.27999999999997" y="409.0168085106384" width="110" height="20" as="geometry" />
        </mxCell>
        <mxCell id="Jl6FXFOsZRHuZ6ULyxE7-62" value="&lt;font style=&quot;font-size: 18px&quot;&gt;&amp;lt;&amp;lt;include&amp;gt;&amp;gt;&lt;/font&gt;" style="text;html=1;align=center;verticalAlign=middle;resizable=0;points=[];autosize=1;strokeColor=none;" parent="vQRAYJaMJyTdqr4Sgmva-4" vertex="1">
          <mxGeometry x="180.27999999999997" y="250.57659574468087" width="110" height="20" as="geometry" />
        </mxCell>
        <mxCell id="Jl6FXFOsZRHuZ6ULyxE7-60" value="&lt;font style=&quot;font-size: 18px&quot;&gt;&amp;lt;&amp;lt;include&amp;gt;&amp;gt;&lt;/font&gt;" style="text;html=1;align=center;verticalAlign=middle;resizable=0;points=[];autosize=1;strokeColor=none;" parent="vQRAYJaMJyTdqr4Sgmva-4" vertex="1">
          <mxGeometry x="180.27999999999997" y="89.0863829787234" width="110" height="20" as="geometry" />
        </mxCell>
        <mxCell id="vQRAYJaMJyTdqr4Sgmva-8" value="&lt;font style=&quot;font-size: 20px&quot;&gt;Download File&lt;/font&gt;" style="ellipse;whiteSpace=wrap;html=1;" parent="pgluA2IQeVN8h7WU6u9w-4" vertex="1">
          <mxGeometry x="893.8833333333332" y="1559.5691489361702" width="143.88888888888889" height="105.74468085106383" as="geometry" />
        </mxCell>
        <mxCell id="-didQ_hXLUrym4Irgyjn-124" style="edgeStyle=orthogonalEdgeStyle;rounded=0;orthogonalLoop=1;jettySize=auto;html=1;entryX=0;entryY=0.5;entryDx=0;entryDy=0;dashed=1;" edge="1" parent="pgluA2IQeVN8h7WU6u9w-4" source="Jl6FXFOsZRHuZ6ULyxE7-23" target="hYKN5bIOJs0yOzT2j8Kd-16">
          <mxGeometry relative="1" as="geometry">
            <Array as="points">
              <mxPoint x="802" y="892.57" />
              <mxPoint x="802" y="1468.57" />
            </Array>
          </mxGeometry>
        </mxCell>
        <mxCell id="-didQ_hXLUrym4Irgyjn-125" value="&lt;font style=&quot;font-size: 18px&quot;&gt;&amp;lt;&amp;lt;include&amp;gt;&amp;gt;&lt;/font&gt;" style="text;html=1;align=center;verticalAlign=middle;resizable=0;points=[];autosize=1;strokeColor=none;" vertex="1" parent="pgluA2IQeVN8h7WU6u9w-4">
          <mxGeometry x="791.3888888888889" y="1449.573404255319" width="110" height="20" as="geometry" />
        </mxCell>
        <mxCell id="-didQ_hXLUrym4Irgyjn-126" style="edgeStyle=orthogonalEdgeStyle;rounded=0;orthogonalLoop=1;jettySize=auto;html=1;entryX=0;entryY=0.5;entryDx=0;entryDy=0;dashed=1;" edge="1" parent="pgluA2IQeVN8h7WU6u9w-4" source="Jl6FXFOsZRHuZ6ULyxE7-23" target="vQRAYJaMJyTdqr4Sgmva-8">
          <mxGeometry relative="1" as="geometry">
            <Array as="points">
              <mxPoint x="802" y="892.57" />
              <mxPoint x="802" y="1612.57" />
            </Array>
          </mxGeometry>
        </mxCell>
        <mxCell id="-didQ_hXLUrym4Irgyjn-213" value="&lt;font style=&quot;font-size: 18px&quot;&gt;&amp;lt;&amp;lt;include&amp;gt;&amp;gt;&lt;/font&gt;" style="text;html=1;align=center;verticalAlign=middle;resizable=0;points=[];autosize=1;strokeColor=none;" vertex="1" parent="pgluA2IQeVN8h7WU6u9w-4">
          <mxGeometry x="791.3888888888889" y="1589.573404255319" width="110" height="20" as="geometry" />
        </mxCell>
        <mxCell id="-didQ_hXLUrym4Irgyjn-214" value="&lt;font style=&quot;font-size: 20px&quot;&gt;Add a sub-folder to a folder&lt;/font&gt;" style="ellipse;whiteSpace=wrap;html=1;" vertex="1" parent="pgluA2IQeVN8h7WU6u9w-4">
          <mxGeometry x="883.8888888888889" y="694.8931914893618" width="143.88888888888889" height="105.74468085106383" as="geometry" />
        </mxCell>
        <mxCell id="-didQ_hXLUrym4Irgyjn-218" value="&lt;font style=&quot;font-size: 18px&quot;&gt;&amp;lt;&amp;lt;include&amp;gt;&amp;gt;&lt;/font&gt;" style="text;html=1;align=center;verticalAlign=middle;resizable=0;points=[];autosize=1;strokeColor=none;" vertex="1" parent="pgluA2IQeVN8h7WU6u9w-4">
          <mxGeometry x="766.1066666666667" y="729.9953191489362" width="110" height="20" as="geometry" />
        </mxCell>
        <mxCell id="pgluA2IQeVN8h7WU6u9w-66" style="edgeStyle=orthogonalEdgeStyle;orthogonalLoop=1;jettySize=auto;html=1;entryX=0;entryY=0.5;entryDx=0;entryDy=0;endArrow=open;endFill=0;" parent="-didQ_hXLUrym4Irgyjn-0" target="pgluA2IQeVN8h7WU6u9w-28" edge="1">
          <mxGeometry relative="1" as="geometry">
            <Array as="points">
              <mxPoint x="154.16666666666666" y="755.3191489361702" />
              <mxPoint x="154.16666666666666" y="611.8085106382979" />
            </Array>
            <mxPoint x="71.94444444444446" y="755.3200000000002" as="sourcePoint" />
          </mxGeometry>
        </mxCell>
        <mxCell id="pgluA2IQeVN8h7WU6u9w-64" style="edgeStyle=orthogonalEdgeStyle;orthogonalLoop=1;jettySize=auto;html=1;exitX=0.5;exitY=0.5;exitDx=0;exitDy=0;exitPerimeter=0;entryX=0;entryY=0.5;entryDx=0;entryDy=0;endArrow=open;endFill=0;" parent="-didQ_hXLUrym4Irgyjn-0" target="pgluA2IQeVN8h7WU6u9w-60" edge="1">
          <mxGeometry relative="1" as="geometry">
            <mxPoint x="15.416666666666742" y="422.9787234042552" as="sourcePoint" />
          </mxGeometry>
        </mxCell>
        <mxCell id="pgluA2IQeVN8h7WU6u9w-65" style="edgeStyle=orthogonalEdgeStyle;orthogonalLoop=1;jettySize=auto;html=1;entryX=0;entryY=0.5;entryDx=0;entryDy=0;endArrow=open;endFill=0;" parent="-didQ_hXLUrym4Irgyjn-0" target="pgluA2IQeVN8h7WU6u9w-61" edge="1">
          <mxGeometry relative="1" as="geometry">
            <mxPoint x="30.833333333333258" y="423.02857142857135" as="sourcePoint" />
          </mxGeometry>
        </mxCell>
        <mxCell id="Jl6FXFOsZRHuZ6ULyxE7-63" style="edgeStyle=orthogonalEdgeStyle;orthogonalLoop=1;jettySize=auto;html=1;entryX=0;entryY=0.5;entryDx=0;entryDy=0;endArrow=classic;endFill=0;" parent="-didQ_hXLUrym4Irgyjn-0" target="Jl6FXFOsZRHuZ6ULyxE7-12" edge="1">
          <mxGeometry relative="1" as="geometry">
            <mxPoint x="30.833333333333258" y="423.02857142857135" as="sourcePoint" />
          </mxGeometry>
        </mxCell>
        <mxCell id="hYKN5bIOJs0yOzT2j8Kd-37" style="edgeStyle=orthogonalEdgeStyle;orthogonalLoop=1;jettySize=auto;html=1;entryX=0.5;entryY=0;entryDx=0;entryDy=0;startArrow=none;startFill=0;endArrow=classic;endFill=1;" parent="-didQ_hXLUrym4Irgyjn-0" target="Jl6FXFOsZRHuZ6ULyxE7-23" edge="1">
          <mxGeometry relative="1" as="geometry">
            <mxPoint x="30.833333333333258" y="423.02857142857135" as="sourcePoint" />
          </mxGeometry>
        </mxCell>
        <mxCell id="hYKN5bIOJs0yOzT2j8Kd-38" style="edgeStyle=orthogonalEdgeStyle;orthogonalLoop=1;jettySize=auto;html=1;entryX=0;entryY=0.5;entryDx=0;entryDy=0;startArrow=none;startFill=0;endArrow=classic;endFill=1;" parent="-didQ_hXLUrym4Irgyjn-0" target="Jl6FXFOsZRHuZ6ULyxE7-59" edge="1">
          <mxGeometry relative="1" as="geometry">
            <Array as="points">
              <mxPoint x="719.4444444444443" y="422.97872340425533" />
            </Array>
            <mxPoint x="30.833333333333258" y="423.02857142857135" as="sourcePoint" />
          </mxGeometry>
        </mxCell>
        <mxCell id="pgluA2IQeVN8h7WU6u9w-2" style="edgeStyle=orthogonalEdgeStyle;orthogonalLoop=1;jettySize=auto;html=1;entryX=0;entryY=1;entryDx=0;entryDy=0;entryPerimeter=0;" parent="-didQ_hXLUrym4Irgyjn-0" edge="1">
          <mxGeometry relative="1" as="geometry">
            <mxPoint y="468.29787234042556" as="targetPoint" />
            <mxPoint x="41.111111111111086" y="921.5" as="sourcePoint" />
          </mxGeometry>
        </mxCell>
        <mxCell id="pgluA2IQeVN8h7WU6u9w-44" value="" style="group;" parent="-didQ_hXLUrym4Irgyjn-0" vertex="1" connectable="0">
          <mxGeometry x="226.1111111111111" y="1193.404255319149" width="421.38888888888886" height="543.8297872340426" as="geometry" />
        </mxCell>
        <mxCell id="pgluA2IQeVN8h7WU6u9w-45" value="&lt;font style=&quot;font-size: 20px&quot;&gt;Manage User Groups&lt;/font&gt;" style="ellipse;whiteSpace=wrap;html=1;" parent="pgluA2IQeVN8h7WU6u9w-44" vertex="1">
          <mxGeometry width="143.88888888888889" height="105.74468085106383" as="geometry" />
        </mxCell>
        <mxCell id="pgluA2IQeVN8h7WU6u9w-46" value="&lt;font style=&quot;font-size: 20px&quot;&gt;Create Group&lt;/font&gt;" style="ellipse;whiteSpace=wrap;html=1;" parent="pgluA2IQeVN8h7WU6u9w-44" vertex="1">
          <mxGeometry x="277.5" width="143.88888888888889" height="105.74468085106383" as="geometry" />
        </mxCell>
        <mxCell id="pgluA2IQeVN8h7WU6u9w-47" style="edgeStyle=orthogonalEdgeStyle;orthogonalLoop=1;jettySize=auto;html=1;exitX=1;exitY=0.5;exitDx=0;exitDy=0;dashed=1;" parent="pgluA2IQeVN8h7WU6u9w-44" source="pgluA2IQeVN8h7WU6u9w-45" target="pgluA2IQeVN8h7WU6u9w-46" edge="1">
          <mxGeometry relative="1" as="geometry" />
        </mxCell>
        <mxCell id="pgluA2IQeVN8h7WU6u9w-48" value="&lt;font style=&quot;font-size: 20px&quot;&gt;Delete Group&lt;/font&gt;" style="ellipse;whiteSpace=wrap;html=1;" parent="pgluA2IQeVN8h7WU6u9w-44" vertex="1">
          <mxGeometry x="277.5" y="166.17021276595744" width="143.88888888888889" height="105.74468085106383" as="geometry" />
        </mxCell>
        <mxCell id="pgluA2IQeVN8h7WU6u9w-49" style="edgeStyle=orthogonalEdgeStyle;orthogonalLoop=1;jettySize=auto;html=1;entryX=0;entryY=0.5;entryDx=0;entryDy=0;dashed=1;" parent="pgluA2IQeVN8h7WU6u9w-44" source="pgluA2IQeVN8h7WU6u9w-45" target="pgluA2IQeVN8h7WU6u9w-48" edge="1">
          <mxGeometry relative="1" as="geometry">
            <Array as="points">
              <mxPoint x="184.99999999999997" y="52.87234042553192" />
              <mxPoint x="184.99999999999997" y="219.04255319148936" />
            </Array>
          </mxGeometry>
        </mxCell>
        <mxCell id="pgluA2IQeVN8h7WU6u9w-50" value="&lt;font style=&quot;font-size: 20px&quot;&gt;Update Group&lt;/font&gt;" style="ellipse;whiteSpace=wrap;html=1;" parent="pgluA2IQeVN8h7WU6u9w-44" vertex="1">
          <mxGeometry x="277.5" y="302.1276595744681" width="143.88888888888889" height="105.74468085106383" as="geometry" />
        </mxCell>
        <mxCell id="pgluA2IQeVN8h7WU6u9w-51" style="edgeStyle=orthogonalEdgeStyle;orthogonalLoop=1;jettySize=auto;html=1;entryX=0;entryY=0.5;entryDx=0;entryDy=0;dashed=1;" parent="pgluA2IQeVN8h7WU6u9w-44" source="pgluA2IQeVN8h7WU6u9w-45" target="pgluA2IQeVN8h7WU6u9w-50" edge="1">
          <mxGeometry relative="1" as="geometry">
            <Array as="points">
              <mxPoint x="184.99999999999997" y="52.87234042553192" />
              <mxPoint x="184.99999999999997" y="355" />
            </Array>
          </mxGeometry>
        </mxCell>
        <mxCell id="pgluA2IQeVN8h7WU6u9w-52" value="&lt;font style=&quot;font-size: 20px&quot;&gt;View Group&lt;/font&gt;" style="ellipse;whiteSpace=wrap;html=1;" parent="pgluA2IQeVN8h7WU6u9w-44" vertex="1">
          <mxGeometry x="277.5" y="438.0851063829787" width="143.88888888888889" height="105.74468085106383" as="geometry" />
        </mxCell>
        <mxCell id="pgluA2IQeVN8h7WU6u9w-53" style="edgeStyle=orthogonalEdgeStyle;orthogonalLoop=1;jettySize=auto;html=1;entryX=0;entryY=0.5;entryDx=0;entryDy=0;dashed=1;endArrow=open;endFill=0;" parent="pgluA2IQeVN8h7WU6u9w-44" source="pgluA2IQeVN8h7WU6u9w-45" target="pgluA2IQeVN8h7WU6u9w-52" edge="1">
          <mxGeometry relative="1" as="geometry">
            <Array as="points">
              <mxPoint x="184.99999999999997" y="52.87234042553192" />
              <mxPoint x="184.99999999999997" y="490.95744680851067" />
            </Array>
          </mxGeometry>
        </mxCell>
        <mxCell id="pgluA2IQeVN8h7WU6u9w-54" value="&lt;font style=&quot;font-size: 18px&quot;&gt;&amp;lt;&amp;lt;include&amp;gt;&amp;gt;&lt;/font&gt;" style="text;html=1;align=center;verticalAlign=middle;resizable=0;points=[];autosize=1;strokeColor=none;" parent="pgluA2IQeVN8h7WU6u9w-44" vertex="1">
          <mxGeometry x="169.99999999999997" y="196.38297872340428" width="110" height="20" as="geometry" />
        </mxCell>
        <mxCell id="pgluA2IQeVN8h7WU6u9w-55" value="&lt;font style=&quot;font-size: 18px&quot;&gt;&amp;lt;&amp;lt;include&amp;gt;&amp;gt;&lt;/font&gt;" style="text;html=1;align=center;verticalAlign=middle;resizable=0;points=[];autosize=1;strokeColor=none;" parent="pgluA2IQeVN8h7WU6u9w-44" vertex="1">
          <mxGeometry x="169.99999999999997" y="332.3404255319149" width="110" height="20" as="geometry" />
        </mxCell>
        <mxCell id="pgluA2IQeVN8h7WU6u9w-56" value="&lt;font style=&quot;font-size: 18px&quot;&gt;&amp;lt;&amp;lt;include&amp;gt;&amp;gt;&lt;/font&gt;" style="text;html=1;align=center;verticalAlign=middle;resizable=0;points=[];autosize=1;strokeColor=none;" parent="pgluA2IQeVN8h7WU6u9w-44" vertex="1">
          <mxGeometry x="169.99999999999997" y="468.29787234042556" width="110" height="20" as="geometry" />
        </mxCell>
        <mxCell id="pgluA2IQeVN8h7WU6u9w-58" value="&lt;font style=&quot;font-size: 18px&quot;&gt;&amp;lt;&amp;lt;include&amp;gt;&amp;gt;&lt;/font&gt;" style="text;html=1;align=center;verticalAlign=middle;resizable=0;points=[];autosize=1;strokeColor=none;" parent="pgluA2IQeVN8h7WU6u9w-44" vertex="1">
          <mxGeometry x="169.99999999999997" y="30.21276595744681" width="110" height="20" as="geometry" />
        </mxCell>
        <mxCell id="pgluA2IQeVN8h7WU6u9w-67" style="edgeStyle=orthogonalEdgeStyle;orthogonalLoop=1;jettySize=auto;html=1;entryX=0;entryY=0.5;entryDx=0;entryDy=0;endArrow=open;endFill=0;" parent="-didQ_hXLUrym4Irgyjn-0" target="pgluA2IQeVN8h7WU6u9w-45" edge="1">
          <mxGeometry relative="1" as="geometry">
            <Array as="points">
              <mxPoint x="154" y="755" />
              <mxPoint x="154" y="1246" />
            </Array>
            <mxPoint x="71.94444444444446" y="755.3200000000002" as="sourcePoint" />
          </mxGeometry>
        </mxCell>
        <mxCell id="Jl6FXFOsZRHuZ6ULyxE7-18" value="&lt;font style=&quot;font-size: 18px&quot;&gt;&amp;lt;&amp;lt;include&amp;gt;&amp;gt;&lt;/font&gt;" style="text;html=1;align=center;verticalAlign=middle;resizable=0;points=[];autosize=1;strokeColor=none;" parent="-didQ_hXLUrym4Irgyjn-0" vertex="1">
          <mxGeometry x="896.6388888888888" y="271.9148936170213" width="110" height="20" as="geometry" />
        </mxCell>
        <mxCell id="vQRAYJaMJyTdqr4Sgmva-11" style="edgeStyle=orthogonalEdgeStyle;orthogonalLoop=1;jettySize=auto;html=1;exitX=0;exitY=0.5;exitDx=0;exitDy=0;dashed=1;startArrow=none;startFill=0;endArrow=none;endFill=0;" parent="-didQ_hXLUrym4Irgyjn-0" source="hYKN5bIOJs0yOzT2j8Kd-48" edge="1">
          <mxGeometry relative="1" as="geometry">
            <mxPoint x="1192.2244444444443" y="2053.132553191489" as="targetPoint" />
          </mxGeometry>
        </mxCell>
        <mxCell id="-didQ_hXLUrym4Irgyjn-6" value="&lt;font style=&quot;font-size: 24px&quot;&gt;Admin&lt;/font&gt;" style="shape=umlActor;verticalLabelPosition=bottom;verticalAlign=top;html=1;" vertex="1" parent="-didQ_hXLUrym4Irgyjn-0">
          <mxGeometry x="10.56" y="620" width="91.11" height="182.22" as="geometry" />
        </mxCell>
        <mxCell id="-didQ_hXLUrym4Irgyjn-7" value="&lt;font style=&quot;font-size: 24px&quot;&gt;(Regular) User&lt;/font&gt;" style="shape=umlActor;verticalLabelPosition=bottom;verticalAlign=top;html=1;" vertex="1" parent="-didQ_hXLUrym4Irgyjn-0">
          <mxGeometry x="5.999999999999999" y="852" width="91.11" height="182.22" as="geometry" />
        </mxCell>
        <mxCell id="-didQ_hXLUrym4Irgyjn-5" value="&lt;font style=&quot;font-size: 24px&quot;&gt;User&lt;/font&gt;" style="shape=umlActor;verticalLabelPosition=bottom;verticalAlign=top;html=1;" vertex="1" parent="jCQ3bfTnqBJmba_2qrH4-1">
          <mxGeometry x="10" y="-790" width="93" height="186" as="geometry" />
        </mxCell>
      </root>
    </mxGraphModel>
  </diagram>
  <diagram id="3072gjNyKcWD1MqMKccq" name="C2">
    <mxGraphModel dx="1038" dy="1130" grid="1" gridSize="10" guides="1" tooltips="1" connect="1" arrows="1" fold="1" page="1" pageScale="1" pageWidth="827" pageHeight="583" math="0" shadow="0">
      <root>
        <mxCell id="2PrD4Fy-2onH-denkzo2-0" />
        <mxCell id="2PrD4Fy-2onH-denkzo2-1" parent="2PrD4Fy-2onH-denkzo2-0" />
        <object placeholders="1" c4Type="Database" c4Technology="MySQL" c4Description="Store user registration information hashed authentication credentials, access to files and folders..." label="%c4Type%&lt;div&gt;[Container:&amp;nbsp;%c4Technology%]&lt;/div&gt;&lt;br&gt;&lt;div&gt;%c4Description%&lt;/div&gt;" id="2PrD4Fy-2onH-denkzo2-7">
          <mxCell style="shape=cylinder;whiteSpace=wrap;html=1;boundedLbl=1;rounded=0;labelBackgroundColor=none;fillColor=#438DD5;fontSize=12;fontColor=#ffffff;align=center;strokeColor=#3C7FC0;metaEdit=1;points=[[0.5,0,0],[1,0.25,0],[1,0.5,0],[1,0.75,0],[0.5,1,0],[0,0.75,0],[0,0.5,0],[0,0.25,0]];metaData={&quot;c4Type&quot;:{&quot;editable&quot;:false}};" parent="2PrD4Fy-2onH-denkzo2-1" vertex="1">
            <mxGeometry x="314" y="-230" width="200" height="175" as="geometry" />
          </mxCell>
        </object>
        <object placeholders="1" c4Name="API Backend" c4Type="Container" c4Technology="Java and Spring MVC" c4Description="Provides functionality via a JSON/HTTP API." label="&lt;b&gt;%c4Name%&lt;/b&gt;&lt;div&gt;[%c4Type%: %c4Technology%]&lt;/div&gt;&lt;br&gt;&lt;div&gt;%c4Description%&lt;/div&gt;" id="2PrD4Fy-2onH-denkzo2-8">
          <mxCell style="rounded=1;whiteSpace=wrap;html=1;labelBackgroundColor=none;fillColor=#438DD5;fontColor=#ffffff;align=center;arcSize=10;strokeColor=#3C7FC0;metaEdit=1;metaData={&quot;c4Type&quot;:{&quot;editable&quot;:false}};points=[[0.25,0,0],[0.5,0,0],[0.75,0,0],[1,0.25,0],[1,0.5,0],[1,0.75,0],[0.75,1,0],[0.5,1,0],[0.25,1,0],[0,0.75,0],[0,0.5,0],[0,0.25,0]];" parent="2PrD4Fy-2onH-denkzo2-1" vertex="1">
            <mxGeometry x="530" y="-480" width="220" height="151.25" as="geometry" />
          </mxCell>
        </object>
        <object placeholders="1" c4Name="Dashboard" c4Type="Container" c4Technology="JavaScript and ReactJS" c4Description="Provides all of the functionality via a web browser" label="&lt;b&gt;%c4Name%&lt;/b&gt;&lt;div&gt;[%c4Type%: %c4Technology%]&lt;/div&gt;&lt;br&gt;&lt;div&gt;%c4Description%&lt;/div&gt;" id="2PrD4Fy-2onH-denkzo2-11">
          <mxCell style="rounded=1;whiteSpace=wrap;html=1;labelBackgroundColor=none;fillColor=#438DD5;fontColor=#ffffff;align=center;arcSize=10;strokeColor=#3C7FC0;metaEdit=1;metaData={&quot;c4Type&quot;:{&quot;editable&quot;:false}};points=[[0.25,0,0],[0.5,0,0],[0.75,0,0],[1,0.25,0],[1,0.5,0],[1,0.75,0],[0.75,1,0],[0.5,1,0],[0.25,1,0],[0,0.75,0],[0,0.5,0],[0,0.25,0]];" parent="2PrD4Fy-2onH-denkzo2-1" vertex="1">
            <mxGeometry x="70" y="-483.44" width="230" height="158.13" as="geometry" />
          </mxCell>
        </object>
        <object placeholders="1" c4Type="Relationship" c4Technology="JSON/HTTP" c4Description="Make API calls to" label="&lt;div style=&quot;text-align: left&quot;&gt;&lt;div style=&quot;text-align: center&quot;&gt;&lt;b&gt;%c4Description%&lt;/b&gt;&lt;/div&gt;&lt;div style=&quot;text-align: center&quot;&gt;[%c4Technology%]&lt;/div&gt;&lt;/div&gt;" id="NQkyQl2WJ4yjGUisgYlq-0">
          <mxCell style="edgeStyle=none;rounded=0;html=1;jettySize=auto;orthogonalLoop=1;strokeColor=#707070;strokeWidth=2;fontColor=#707070;jumpStyle=none;dashed=1;metaEdit=1;metaData={&quot;c4Type&quot;:{&quot;editable&quot;:false}};startArrow=none;startFill=0;endArrow=classic;endFill=1;" parent="2PrD4Fy-2onH-denkzo2-1" source="2PrD4Fy-2onH-denkzo2-11" target="2PrD4Fy-2onH-denkzo2-8" edge="1">
            <mxGeometry x="-0.125" width="160" relative="1" as="geometry">
              <mxPoint x="320" y="-404.87" as="sourcePoint" />
              <mxPoint x="480" y="-404.87" as="targetPoint" />
              <mxPoint as="offset" />
            </mxGeometry>
          </mxCell>
        </object>
        <object placeholders="1" c4Type="Relationship" c4Technology="JDBC" c4Description="Read from and writes to" label="&lt;div style=&quot;text-align: left&quot;&gt;&lt;div style=&quot;text-align: center&quot;&gt;&lt;b&gt;%c4Description%&lt;/b&gt;&lt;/div&gt;&lt;div style=&quot;text-align: center&quot;&gt;[%c4Technology%]&lt;/div&gt;&lt;/div&gt;" id="NQkyQl2WJ4yjGUisgYlq-1">
          <mxCell style="edgeStyle=none;rounded=0;html=1;entryX=1;entryY=0.5;jettySize=auto;orthogonalLoop=1;strokeColor=#707070;strokeWidth=2;fontColor=#707070;jumpStyle=none;dashed=1;metaEdit=1;metaData={&quot;c4Type&quot;:{&quot;editable&quot;:false}};startArrow=none;startFill=0;endArrow=classic;endFill=1;exitX=0.5;exitY=1;exitDx=0;exitDy=0;exitPerimeter=0;entryDx=0;entryDy=0;entryPerimeter=0;" parent="2PrD4Fy-2onH-denkzo2-1" source="2PrD4Fy-2onH-denkzo2-8" target="2PrD4Fy-2onH-denkzo2-7" edge="1">
            <mxGeometry width="160" relative="1" as="geometry">
              <mxPoint x="570" y="-290" as="sourcePoint" />
              <mxPoint x="730" y="-290" as="targetPoint" />
            </mxGeometry>
          </mxCell>
        </object>
      </root>
    </mxGraphModel>
  </diagram>
  <diagram id="EwG-GDksTLrE4CXTCjf6" name="C3">
    <mxGraphModel dx="3384" dy="4322" grid="1" gridSize="10" guides="1" tooltips="1" connect="1" arrows="1" fold="1" page="1" pageScale="1" pageWidth="827" pageHeight="1169" math="0" shadow="0">
      <root>
        <mxCell id="G5dXMZOh173PLr_mvd9P-0" />
        <mxCell id="G5dXMZOh173PLr_mvd9P-1" parent="G5dXMZOh173PLr_mvd9P-0" />
        <mxCell id="tjHwQa7kX-dpgV1fm9cc-0" value="" style="group" vertex="1" connectable="0" parent="G5dXMZOh173PLr_mvd9P-1">
          <mxGeometry x="-1630" y="-3440" width="790" height="1040" as="geometry" />
        </mxCell>
        <object placeholders="1" c4Name="API Backend" c4Type="ExecutionEnvironment" c4Application="Container" label="&lt;div style=&quot;text-align: left&quot;&gt;%c4Name%&lt;/div&gt;&lt;div style=&quot;text-align: left&quot;&gt;[%c4Application%]&lt;/div&gt;" id="G5dXMZOh173PLr_mvd9P-8">
          <mxCell style="rounded=1;whiteSpace=wrap;html=1;labelBackgroundColor=none;fillColor=#ffffff;fontColor=#000000;align=left;arcSize=5;strokeColor=#000000;verticalAlign=bottom;metaEdit=1;metaData={&quot;c4Type&quot;:{&quot;editable&quot;:false}};points=[[0.25,0,0],[0.5,0,0],[0.75,0,0],[1,0.25,0],[1,0.5,0],[1,0.75,0],[0.75,1,0],[0.5,1,0],[0.25,1,0],[0,0.75,0],[0,0.5,0],[0,0.25,0]];" parent="tjHwQa7kX-dpgV1fm9cc-0" vertex="1">
            <mxGeometry y="305.59" width="790" height="483.03" as="geometry" />
          </mxCell>
        </object>
        <object placeholders="1" c4Type="Database" c4Technology="MySQL" c4Description="Store user registration information hashed authentication credentials, access to files and folders..." label="%c4Type%&lt;div&gt;[Container:&amp;nbsp;%c4Technology%]&lt;/div&gt;&lt;br&gt;&lt;div&gt;%c4Description%&lt;/div&gt;" id="G5dXMZOh173PLr_mvd9P-2">
          <mxCell style="shape=cylinder;whiteSpace=wrap;html=1;boundedLbl=1;rounded=0;labelBackgroundColor=none;fillColor=#438DD5;fontSize=12;fontColor=#ffffff;align=center;strokeColor=#3C7FC0;metaEdit=1;points=[[0.5,0,0],[1,0.25,0],[1,0.5,0],[1,0.75,0],[0.5,1,0],[0,0.75,0],[0,0.5,0],[0,0.25,0]];metaData={&quot;c4Type&quot;:{&quot;editable&quot;:false}};" parent="tjHwQa7kX-dpgV1fm9cc-0" vertex="1">
            <mxGeometry x="280.65" y="867.49" width="220" height="172.51" as="geometry" />
          </mxCell>
        </object>
        <object placeholders="1" c4Name="Dashboard" c4Type="Container" c4Technology="JavaScript and ReactJS" c4Description="Provides all of the functionality via a web browser" label="&lt;b&gt;%c4Name%&lt;/b&gt;&lt;div&gt;[%c4Type%: %c4Technology%]&lt;/div&gt;&lt;br&gt;&lt;div&gt;%c4Description%&lt;/div&gt;" id="G5dXMZOh173PLr_mvd9P-4">
          <mxCell style="rounded=1;whiteSpace=wrap;html=1;labelBackgroundColor=none;fillColor=#438DD5;fontColor=#ffffff;align=center;arcSize=10;strokeColor=#3C7FC0;metaEdit=1;metaData={&quot;c4Type&quot;:{&quot;editable&quot;:false}};points=[[0.25,0,0],[0.5,0,0],[0.75,0,0],[1,0.25,0],[1,0.5,0],[1,0.75,0],[0.75,1,0],[0.5,1,0],[0.25,1,0],[0,0.75,0],[0,0.5,0],[0,0.25,0]];" parent="tjHwQa7kX-dpgV1fm9cc-0" vertex="1">
            <mxGeometry x="310.65" y="9.999999999999998" width="160" height="173.99" as="geometry" />
          </mxCell>
        </object>
        <object placeholders="1" c4Type="Relationship" c4Technology="JSON/HTTP" c4Description="Make API calls to" label="&lt;div style=&quot;text-align: left&quot;&gt;&lt;div style=&quot;text-align: center&quot;&gt;&lt;b&gt;%c4Description%&lt;/b&gt;&lt;/div&gt;&lt;div style=&quot;text-align: center&quot;&gt;[%c4Technology%]&lt;/div&gt;&lt;/div&gt;" id="G5dXMZOh173PLr_mvd9P-5">
          <mxCell style="edgeStyle=none;rounded=0;html=1;jettySize=auto;orthogonalLoop=1;strokeColor=#707070;strokeWidth=2;fontColor=#707070;jumpStyle=none;dashed=1;metaEdit=1;metaData={&quot;c4Type&quot;:{&quot;editable&quot;:false}};startArrow=none;startFill=0;endArrow=classic;endFill=1;entryX=0.5;entryY=0;entryDx=0;entryDy=0;entryPerimeter=0;exitX=0.5;exitY=1;exitDx=0;exitDy=0;exitPerimeter=0;" parent="tjHwQa7kX-dpgV1fm9cc-0" source="G5dXMZOh173PLr_mvd9P-4" target="G5dXMZOh173PLr_mvd9P-11" edge="1">
            <mxGeometry x="-0.125" width="160" relative="1" as="geometry">
              <mxPoint x="378.68852459016387" y="152.92436018957358" as="sourcePoint" />
              <mxPoint x="488.08743169398895" y="197.41181260197325" as="targetPoint" />
              <mxPoint as="offset" />
            </mxGeometry>
          </mxCell>
        </object>
        <object placeholders="1" c4Type="Relationship" c4Technology="JDBC" c4Description="Read from and writes to" label="&lt;div style=&quot;text-align: left&quot;&gt;&lt;div style=&quot;text-align: center&quot;&gt;&lt;b&gt;%c4Description%&lt;/b&gt;&lt;/div&gt;&lt;div style=&quot;text-align: center&quot;&gt;[%c4Technology%]&lt;/div&gt;&lt;/div&gt;" id="G5dXMZOh173PLr_mvd9P-6">
          <mxCell style="edgeStyle=none;rounded=0;html=1;entryX=0.5;entryY=0;jettySize=auto;orthogonalLoop=1;strokeColor=#707070;strokeWidth=2;fontColor=#707070;jumpStyle=none;dashed=1;metaEdit=1;metaData={&quot;c4Type&quot;:{&quot;editable&quot;:false}};startArrow=none;startFill=0;endArrow=classic;endFill=1;entryDx=0;entryDy=0;entryPerimeter=0;" parent="tjHwQa7kX-dpgV1fm9cc-0" source="G5dXMZOh173PLr_mvd9P-8" target="G5dXMZOh173PLr_mvd9P-2" edge="1">
            <mxGeometry width="160" relative="1" as="geometry">
              <mxPoint x="534.3715846994534" y="339.3554502369669" as="sourcePoint" />
              <mxPoint x="551.2021857923496" y="266.16113744075835" as="targetPoint" />
            </mxGeometry>
          </mxCell>
        </object>
        <object placeholders="1" c4Name="Security Component" c4Type="Component" c4Technology="Spring Security" c4Description="Provides functionality related to signing in, granting permission,..." label="&lt;b&gt;%c4Name%&lt;/b&gt;&lt;div&gt;[%c4Type%: %c4Technology%]&lt;/div&gt;&lt;br&gt;&lt;div&gt;%c4Description%&lt;/div&gt;" id="G5dXMZOh173PLr_mvd9P-10">
          <mxCell style="rounded=1;whiteSpace=wrap;html=1;labelBackgroundColor=none;fillColor=#85BBF0;fontColor=#ffffff;align=center;arcSize=10;strokeColor=#78A8D8;metaEdit=1;metaData={&quot;c4Type&quot;:{&quot;editable&quot;:false}};points=[[0.25,0,0],[0.5,0,0],[0.75,0,0],[1,0.25,0],[1,0.5,0],[1,0.75,0],[0.75,1,0],[0.5,1,0],[0.25,1,0],[0,0.75,0],[0,0.5,0],[0,0.25,0]];" parent="tjHwQa7kX-dpgV1fm9cc-0" vertex="1">
            <mxGeometry x="322.53" y="640" width="187.47" height="108.39" as="geometry" />
          </mxCell>
        </object>
        <mxCell id="tjHwQa7kX-dpgV1fm9cc-1" style="edgeStyle=orthogonalEdgeStyle;rounded=0;orthogonalLoop=1;jettySize=auto;html=1;entryX=0;entryY=0.5;entryDx=0;entryDy=0;entryPerimeter=0;dashed=1;" edge="1" parent="tjHwQa7kX-dpgV1fm9cc-0" source="G5dXMZOh173PLr_mvd9P-11" target="G5dXMZOh173PLr_mvd9P-10">
          <mxGeometry relative="1" as="geometry">
            <Array as="points">
              <mxPoint x="73" y="694" />
            </Array>
          </mxGeometry>
        </mxCell>
        <object placeholders="1" c4Name="Authentication Controller" c4Type="Component" c4Technology="Spring MVC Rest Controller" c4Description="Allow users to authenticate " label="&lt;b&gt;%c4Name%&lt;/b&gt;&lt;div&gt;[%c4Type%: %c4Technology%]&lt;/div&gt;&lt;br&gt;&lt;div&gt;%c4Description%&lt;/div&gt;" id="G5dXMZOh173PLr_mvd9P-11">
          <mxCell style="rounded=1;whiteSpace=wrap;html=1;labelBackgroundColor=none;fillColor=#85BBF0;fontColor=#ffffff;align=center;arcSize=10;strokeColor=#78A8D8;metaEdit=1;metaData={&quot;c4Type&quot;:{&quot;editable&quot;:false}};points=[[0.25,0,0],[0.5,0,0],[0.75,0,0],[1,0.25,0],[1,0.5,0],[1,0.75,0],[0.75,1,0],[0.5,1,0],[0.25,1,0],[0,0.75,0],[0,0.5,0],[0,0.25,0]];" parent="tjHwQa7kX-dpgV1fm9cc-0" vertex="1">
            <mxGeometry x="25.25" y="345.02" width="94.75" height="152.62" as="geometry" />
          </mxCell>
        </object>
        <mxCell id="tjHwQa7kX-dpgV1fm9cc-2" style="edgeStyle=orthogonalEdgeStyle;rounded=0;orthogonalLoop=1;jettySize=auto;html=1;entryX=0;entryY=0.5;entryDx=0;entryDy=0;entryPerimeter=0;dashed=1;" edge="1" parent="tjHwQa7kX-dpgV1fm9cc-0" source="G5dXMZOh173PLr_mvd9P-12" target="G5dXMZOh173PLr_mvd9P-10">
          <mxGeometry relative="1" as="geometry">
            <Array as="points">
              <mxPoint x="201" y="694" />
            </Array>
          </mxGeometry>
        </mxCell>
        <object placeholders="1" c4Name="User Controller" c4Type="Component" c4Technology="Spring MVC Rest Controller" c4Description="Provide users with a summary of their account. Allow Admin to manage users" label="&lt;b&gt;%c4Name%&lt;/b&gt;&lt;div&gt;[%c4Type%: %c4Technology%]&lt;/div&gt;&lt;br&gt;&lt;div&gt;%c4Description%&lt;/div&gt;" id="G5dXMZOh173PLr_mvd9P-12">
          <mxCell style="rounded=1;whiteSpace=wrap;html=1;labelBackgroundColor=none;fillColor=#85BBF0;fontColor=#ffffff;align=center;arcSize=10;strokeColor=#78A8D8;metaEdit=1;metaData={&quot;c4Type&quot;:{&quot;editable&quot;:false}};points=[[0.25,0,0],[0.5,0,0],[0.75,0,0],[1,0.25,0],[1,0.5,0],[1,0.75,0],[0.75,1,0],[0.5,1,0],[0.25,1,0],[0,0.75,0],[0,0.5,0],[0,0.25,0]];" parent="tjHwQa7kX-dpgV1fm9cc-0" vertex="1">
            <mxGeometry x="152.74" y="345.02" width="97.26" height="156.66" as="geometry" />
          </mxCell>
        </object>
        <mxCell id="tjHwQa7kX-dpgV1fm9cc-3" style="edgeStyle=orthogonalEdgeStyle;rounded=0;orthogonalLoop=1;jettySize=auto;html=1;entryX=0;entryY=0.5;entryDx=0;entryDy=0;entryPerimeter=0;dashed=1;" edge="1" parent="tjHwQa7kX-dpgV1fm9cc-0" source="G5dXMZOh173PLr_mvd9P-13" target="G5dXMZOh173PLr_mvd9P-10">
          <mxGeometry relative="1" as="geometry">
            <Array as="points">
              <mxPoint x="320" y="694" />
            </Array>
          </mxGeometry>
        </mxCell>
        <object placeholders="1" c4Name="Group Controller" c4Type="Component" c4Technology="Spring MVC Rest Controller" c4Description="Allow Admin to manage user groups." label="&lt;b&gt;%c4Name%&lt;/b&gt;&lt;div&gt;[%c4Type%: %c4Technology%]&lt;/div&gt;&lt;br&gt;&lt;div&gt;%c4Description%&lt;/div&gt;" id="G5dXMZOh173PLr_mvd9P-13">
          <mxCell style="rounded=1;whiteSpace=wrap;html=1;labelBackgroundColor=none;fillColor=#85BBF0;fontColor=#ffffff;align=center;arcSize=10;strokeColor=#78A8D8;metaEdit=1;metaData={&quot;c4Type&quot;:{&quot;editable&quot;:false}};points=[[0.25,0,0],[0.5,0,0],[0.75,0,0],[1,0.25,0],[1,0.5,0],[1,0.75,0],[0.75,1,0],[0.5,1,0],[0.25,1,0],[0,0.75,0],[0,0.5,0],[0,0.25,0]];" parent="tjHwQa7kX-dpgV1fm9cc-0" vertex="1">
            <mxGeometry x="280.65" y="345.02" width="99.35" height="160.02" as="geometry" />
          </mxCell>
        </object>
        <mxCell id="tjHwQa7kX-dpgV1fm9cc-4" style="edgeStyle=orthogonalEdgeStyle;rounded=0;orthogonalLoop=1;jettySize=auto;html=1;entryX=1;entryY=0.5;entryDx=0;entryDy=0;entryPerimeter=0;dashed=1;" edge="1" parent="tjHwQa7kX-dpgV1fm9cc-0" source="G5dXMZOh173PLr_mvd9P-14" target="G5dXMZOh173PLr_mvd9P-10">
          <mxGeometry relative="1" as="geometry">
            <Array as="points">
              <mxPoint x="520" y="427" />
              <mxPoint x="520" y="694" />
            </Array>
          </mxGeometry>
        </mxCell>
        <object placeholders="1" c4Name="Folder Controller" c4Type="Component" c4Technology="Spring MVC Rest Controller" c4Description="Allow User to manage folders." label="&lt;b&gt;%c4Name%&lt;/b&gt;&lt;div&gt;[%c4Type%: %c4Technology%]&lt;/div&gt;&lt;br&gt;&lt;div&gt;%c4Description%&lt;/div&gt;" id="G5dXMZOh173PLr_mvd9P-14">
          <mxCell style="rounded=1;whiteSpace=wrap;html=1;labelBackgroundColor=none;fillColor=#85BBF0;fontColor=#ffffff;align=center;arcSize=10;strokeColor=#78A8D8;metaEdit=1;metaData={&quot;c4Type&quot;:{&quot;editable&quot;:false}};points=[[0.25,0,0],[0.5,0,0],[0.75,0,0],[1,0.25,0],[1,0.5,0],[1,0.75,0],[0.75,1,0],[0.5,1,0],[0.25,1,0],[0,0.75,0],[0,0.5,0],[0,0.25,0]];" parent="tjHwQa7kX-dpgV1fm9cc-0" vertex="1">
            <mxGeometry x="408.56" y="345.02" width="101.44" height="163.38" as="geometry" />
          </mxCell>
        </object>
        <mxCell id="tjHwQa7kX-dpgV1fm9cc-5" style="edgeStyle=orthogonalEdgeStyle;rounded=0;orthogonalLoop=1;jettySize=auto;html=1;entryX=1;entryY=0.5;entryDx=0;entryDy=0;entryPerimeter=0;dashed=1;" edge="1" parent="tjHwQa7kX-dpgV1fm9cc-0" source="G5dXMZOh173PLr_mvd9P-15" target="G5dXMZOh173PLr_mvd9P-10">
          <mxGeometry relative="1" as="geometry">
            <Array as="points">
              <mxPoint x="588" y="694" />
            </Array>
          </mxGeometry>
        </mxCell>
        <object placeholders="1" c4Name="File Controller" c4Type="Component" c4Technology="Spring MVC Rest Controller" c4Description="Allow User to manage files." label="&lt;b&gt;%c4Name%&lt;/b&gt;&lt;div&gt;[%c4Type%: %c4Technology%]&lt;/div&gt;&lt;br&gt;&lt;div&gt;%c4Description%&lt;/div&gt;" id="G5dXMZOh173PLr_mvd9P-15">
          <mxCell style="rounded=1;whiteSpace=wrap;html=1;labelBackgroundColor=none;fillColor=#85BBF0;fontColor=#ffffff;align=center;arcSize=10;strokeColor=#78A8D8;metaEdit=1;metaData={&quot;c4Type&quot;:{&quot;editable&quot;:false}};points=[[0.25,0,0],[0.5,0,0],[0.75,0,0],[1,0.25,0],[1,0.5,0],[1,0.75,0],[0.75,1,0],[0.5,1,0],[0.25,1,0],[0,0.75,0],[0,0.5,0],[0,0.25,0]];" parent="tjHwQa7kX-dpgV1fm9cc-0" vertex="1">
            <mxGeometry x="536.9" y="345.02" width="103.1" height="166.07" as="geometry" />
          </mxCell>
        </object>
        <mxCell id="tjHwQa7kX-dpgV1fm9cc-7" style="edgeStyle=orthogonalEdgeStyle;rounded=0;orthogonalLoop=1;jettySize=auto;html=1;entryX=1;entryY=0.5;entryDx=0;entryDy=0;entryPerimeter=0;dashed=1;" edge="1" parent="tjHwQa7kX-dpgV1fm9cc-0" source="G5dXMZOh173PLr_mvd9P-16" target="G5dXMZOh173PLr_mvd9P-10">
          <mxGeometry relative="1" as="geometry">
            <Array as="points">
              <mxPoint x="717" y="694" />
            </Array>
          </mxGeometry>
        </mxCell>
        <object placeholders="1" c4Name="ACL Controller" c4Type="Component" c4Technology="Spring MVC Rest Controller" c4Description="Allow User to manage ACLs." label="&lt;b&gt;%c4Name%&lt;/b&gt;&lt;div&gt;[%c4Type%: %c4Technology%]&lt;/div&gt;&lt;br&gt;&lt;div&gt;%c4Description%&lt;/div&gt;" id="G5dXMZOh173PLr_mvd9P-16">
          <mxCell style="rounded=1;whiteSpace=wrap;html=1;labelBackgroundColor=none;fillColor=#85BBF0;fontColor=#ffffff;align=center;arcSize=10;strokeColor=#78A8D8;metaEdit=1;metaData={&quot;c4Type&quot;:{&quot;editable&quot;:false}};points=[[0.25,0,0],[0.5,0,0],[0.75,0,0],[1,0.25,0],[1,0.5,0],[1,0.75,0],[0.75,1,0],[0.5,1,0],[0.25,1,0],[0,0.75,0],[0,0.5,0],[0,0.25,0]];" parent="tjHwQa7kX-dpgV1fm9cc-0" vertex="1">
            <mxGeometry x="664.81" y="345.02" width="105.19" height="169.43" as="geometry" />
          </mxCell>
        </object>
        <object placeholders="1" c4Type="Relationship" c4Technology="JSON/HTTP" c4Description="Make API calls to" label="&lt;div style=&quot;text-align: left&quot;&gt;&lt;div style=&quot;text-align: center&quot;&gt;&lt;b&gt;%c4Description%&lt;/b&gt;&lt;/div&gt;&lt;div style=&quot;text-align: center&quot;&gt;[%c4Technology%]&lt;/div&gt;&lt;/div&gt;" id="G5dXMZOh173PLr_mvd9P-17">
          <mxCell style="edgeStyle=none;rounded=0;html=1;jettySize=auto;orthogonalLoop=1;strokeColor=#707070;strokeWidth=2;fontColor=#707070;jumpStyle=none;dashed=1;metaEdit=1;metaData={&quot;c4Type&quot;:{&quot;editable&quot;:false}};startArrow=none;startFill=0;endArrow=classic;endFill=1;entryX=0.5;entryY=0;entryDx=0;entryDy=0;entryPerimeter=0;exitX=0.5;exitY=1;exitDx=0;exitDy=0;exitPerimeter=0;" parent="tjHwQa7kX-dpgV1fm9cc-0" source="G5dXMZOh173PLr_mvd9P-4" target="G5dXMZOh173PLr_mvd9P-12" edge="1">
            <mxGeometry x="-0.125" width="160" relative="1" as="geometry">
              <mxPoint x="395.51912568306" y="177.44075829383885" as="sourcePoint" />
              <mxPoint x="105.1912568306012" y="406.36890995260654" as="targetPoint" />
              <mxPoint as="offset" />
            </mxGeometry>
          </mxCell>
        </object>
        <object placeholders="1" c4Type="Relationship" c4Technology="JSON/HTTP" c4Description="Make API calls to" label="&lt;div style=&quot;text-align: left&quot;&gt;&lt;div style=&quot;text-align: center&quot;&gt;&lt;b&gt;%c4Description%&lt;/b&gt;&lt;/div&gt;&lt;div style=&quot;text-align: center&quot;&gt;[%c4Technology%]&lt;/div&gt;&lt;/div&gt;" id="G5dXMZOh173PLr_mvd9P-18">
          <mxCell style="edgeStyle=none;rounded=0;html=1;jettySize=auto;orthogonalLoop=1;strokeColor=#707070;strokeWidth=2;fontColor=#707070;jumpStyle=none;dashed=1;metaEdit=1;metaData={&quot;c4Type&quot;:{&quot;editable&quot;:false}};startArrow=none;startFill=0;endArrow=classic;endFill=1;entryX=0.5;entryY=0;entryDx=0;entryDy=0;entryPerimeter=0;exitX=0.5;exitY=1;exitDx=0;exitDy=0;exitPerimeter=0;" parent="tjHwQa7kX-dpgV1fm9cc-0" source="G5dXMZOh173PLr_mvd9P-4" target="G5dXMZOh173PLr_mvd9P-13" edge="1">
            <mxGeometry x="-0.125" width="160" relative="1" as="geometry">
              <mxPoint x="433.9812568306011" y="236.5876777251185" as="sourcePoint" />
              <mxPoint x="213.00387978142086" y="404.170616113744" as="targetPoint" />
              <mxPoint as="offset" />
            </mxGeometry>
          </mxCell>
        </object>
        <object placeholders="1" c4Type="Relationship" c4Technology="JSON/HTTP" c4Description="Make API calls to" label="&lt;div style=&quot;text-align: left&quot;&gt;&lt;div style=&quot;text-align: center&quot;&gt;&lt;b&gt;%c4Description%&lt;/b&gt;&lt;/div&gt;&lt;div style=&quot;text-align: center&quot;&gt;[%c4Technology%]&lt;/div&gt;&lt;/div&gt;" id="G5dXMZOh173PLr_mvd9P-19">
          <mxCell style="edgeStyle=none;rounded=0;html=1;jettySize=auto;orthogonalLoop=1;strokeColor=#707070;strokeWidth=2;fontColor=#707070;jumpStyle=none;dashed=1;metaEdit=1;metaData={&quot;c4Type&quot;:{&quot;editable&quot;:false}};startArrow=none;startFill=0;endArrow=classic;endFill=1;entryX=0.5;entryY=0;entryDx=0;entryDy=0;entryPerimeter=0;exitX=0.5;exitY=1;exitDx=0;exitDy=0;exitPerimeter=0;" parent="tjHwQa7kX-dpgV1fm9cc-0" target="G5dXMZOh173PLr_mvd9P-14" edge="1" source="G5dXMZOh173PLr_mvd9P-4">
            <mxGeometry x="-0.125" width="160" relative="1" as="geometry">
              <mxPoint x="403.93442622950823" y="157.7251184834123" as="sourcePoint" />
              <mxPoint x="391.311475409836" y="386.2983886255922" as="targetPoint" />
              <mxPoint as="offset" />
            </mxGeometry>
          </mxCell>
        </object>
        <object placeholders="1" c4Type="Relationship" c4Technology="JSON/HTTP" c4Description="Make API calls to" label="&lt;div style=&quot;text-align: left&quot;&gt;&lt;div style=&quot;text-align: center&quot;&gt;&lt;b&gt;%c4Description%&lt;/b&gt;&lt;/div&gt;&lt;div style=&quot;text-align: center&quot;&gt;[%c4Technology%]&lt;/div&gt;&lt;/div&gt;" id="G5dXMZOh173PLr_mvd9P-20">
          <mxCell style="edgeStyle=none;rounded=0;html=1;jettySize=auto;orthogonalLoop=1;strokeColor=#707070;strokeWidth=2;fontColor=#707070;jumpStyle=none;dashed=1;metaEdit=1;metaData={&quot;c4Type&quot;:{&quot;editable&quot;:false}};startArrow=none;startFill=0;endArrow=classic;endFill=1;entryX=0.5;entryY=0;entryDx=0;entryDy=0;entryPerimeter=0;exitX=0.5;exitY=1;exitDx=0;exitDy=0;exitPerimeter=0;" parent="tjHwQa7kX-dpgV1fm9cc-0" source="G5dXMZOh173PLr_mvd9P-4" target="G5dXMZOh173PLr_mvd9P-15" edge="1">
            <mxGeometry x="-0.125" width="160" relative="1" as="geometry">
              <mxPoint x="408.14207650273227" y="167.5829383886256" as="sourcePoint" />
              <mxPoint x="455.6127868852459" y="354.8815165876777" as="targetPoint" />
              <mxPoint as="offset" />
            </mxGeometry>
          </mxCell>
        </object>
        <object placeholders="1" c4Type="Relationship" c4Technology="JSON/HTTP" c4Description="Make API calls to" label="&lt;div style=&quot;text-align: left&quot;&gt;&lt;div style=&quot;text-align: center&quot;&gt;&lt;b&gt;%c4Description%&lt;/b&gt;&lt;/div&gt;&lt;div style=&quot;text-align: center&quot;&gt;[%c4Technology%]&lt;/div&gt;&lt;/div&gt;" id="G5dXMZOh173PLr_mvd9P-21">
          <mxCell style="edgeStyle=none;rounded=0;html=1;jettySize=auto;orthogonalLoop=1;strokeColor=#707070;strokeWidth=2;fontColor=#707070;jumpStyle=none;dashed=1;metaEdit=1;metaData={&quot;c4Type&quot;:{&quot;editable&quot;:false}};startArrow=none;startFill=0;endArrow=classic;endFill=1;entryX=0.5;entryY=0;entryDx=0;entryDy=0;entryPerimeter=0;exitX=0.5;exitY=1;exitDx=0;exitDy=0;exitPerimeter=0;" parent="tjHwQa7kX-dpgV1fm9cc-0" source="G5dXMZOh173PLr_mvd9P-4" target="G5dXMZOh173PLr_mvd9P-16" edge="1">
            <mxGeometry x="-0.125" width="160" relative="1" as="geometry">
              <mxPoint x="572.2404371584698" y="88.72037914691943" as="sourcePoint" />
              <mxPoint x="619.7111475409838" y="276.0189573459715" as="targetPoint" />
              <mxPoint as="offset" />
            </mxGeometry>
          </mxCell>
        </object>
        <mxCell id="G5dXMZOh173PLr_mvd9P-33" value="Uses" style="text;html=1;strokeColor=none;fillColor=none;align=center;verticalAlign=middle;whiteSpace=wrap;rounded=0;" parent="tjHwQa7kX-dpgV1fm9cc-0" vertex="1">
          <mxGeometry x="329.9990710382514" y="542.1800947867299" width="16.830601092896174" height="19.715639810426538" as="geometry" />
        </mxCell>
        <mxCell id="G5dXMZOh173PLr_mvd9P-35" value="Uses" style="text;html=1;strokeColor=none;fillColor=none;align=center;verticalAlign=middle;whiteSpace=wrap;rounded=0;" parent="tjHwQa7kX-dpgV1fm9cc-0" vertex="1">
          <mxGeometry x="209.99956284153" y="542.1800947867299" width="16.830601092896174" height="19.715639810426538" as="geometry" />
        </mxCell>
        <mxCell id="G5dXMZOh173PLr_mvd9P-36" value="Uses" style="text;html=1;strokeColor=none;fillColor=none;align=center;verticalAlign=middle;whiteSpace=wrap;rounded=0;" parent="tjHwQa7kX-dpgV1fm9cc-0" vertex="1">
          <mxGeometry x="80.0024043715847" y="542.1800947867299" width="16.830601092896174" height="19.715639810426538" as="geometry" />
        </mxCell>
        <mxCell id="G5dXMZOh173PLr_mvd9P-37" value="Uses" style="text;html=1;strokeColor=none;fillColor=none;align=center;verticalAlign=middle;whiteSpace=wrap;rounded=0;" parent="tjHwQa7kX-dpgV1fm9cc-0" vertex="1">
          <mxGeometry x="493.169344262295" y="542.1800947867299" width="16.830601092896174" height="19.715639810426538" as="geometry" />
        </mxCell>
        <mxCell id="G5dXMZOh173PLr_mvd9P-38" value="Uses" style="text;html=1;strokeColor=none;fillColor=none;align=center;verticalAlign=middle;whiteSpace=wrap;rounded=0;" parent="tjHwQa7kX-dpgV1fm9cc-0" vertex="1">
          <mxGeometry x="599.9957377049179" y="542.1800947867299" width="16.830601092896174" height="19.715639810426538" as="geometry" />
        </mxCell>
        <mxCell id="G5dXMZOh173PLr_mvd9P-39" value="Uses" style="text;html=1;strokeColor=none;fillColor=none;align=center;verticalAlign=middle;whiteSpace=wrap;rounded=0;" parent="tjHwQa7kX-dpgV1fm9cc-0" vertex="1">
          <mxGeometry x="700.002131147541" y="542.1800947867299" width="16.830601092896174" height="19.715639810426538" as="geometry" />
        </mxCell>
      </root>
    </mxGraphModel>
  </diagram>
</mxfile>
